<?xml version="1.0" encoding="UTF-8" standalone="no"?>
<svg
   height="301.581673pt"
   version="1.1"
   viewBox="0 0 500.4 301.581673"
   width="500.4pt"
   id="svg1082"
   sodipodi:docname="plt_animal_preds400_tight.svg"
   inkscape:version="1.1.2 (b8e25be8, 2022-02-05)"
   xmlns:inkscape="http://www.inkscape.org/namespaces/inkscape"
   xmlns:sodipodi="http://sodipodi.sourceforge.net/DTD/sodipodi-0.dtd"
   xmlns:xlink="http://www.w3.org/1999/xlink"
   xmlns="http://www.w3.org/2000/svg"
   xmlns:svg="http://www.w3.org/2000/svg"
   xmlns:rdf="http://www.w3.org/1999/02/22-rdf-syntax-ns#"
   xmlns:cc="http://creativecommons.org/ns#"
   xmlns:dc="http://purl.org/dc/elements/1.1/">
  <sodipodi:namedview
     id="namedview1084"
     pagecolor="#505050"
     bordercolor="#ffffff"
     borderopacity="1"
     inkscape:pageshadow="0"
     inkscape:pageopacity="0"
     inkscape:pagecheckerboard="1"
     inkscape:document-units="pt"
     showgrid="false"
     inkscape:zoom="1.1523546"
     inkscape:cx="319.34615"
     inkscape:cy="199.59134"
     inkscape:window-width="957"
     inkscape:window-height="1200"
     inkscape:window-x="963"
     inkscape:window-y="0"
     inkscape:window-maximized="0"
     inkscape:current-layer="svg1082">
    <inkscape:grid
       type="xygrid"
       id="grid1086" />
  </sodipodi:namedview>
  <metadata
     id="metadata707">
    <rdf:RDF>
      <cc:Work>
        <dc:type
           rdf:resource="http://purl.org/dc/dcmitype/StillImage" />
        <dc:date>2022-02-16T13:26:03.654536</dc:date>
        <dc:format>image/svg+xml</dc:format>
        <dc:creator>
          <cc:Agent>
            <dc:title>Matplotlib v3.4.3, https://matplotlib.org/</dc:title>
          </cc:Agent>
        </dc:creator>
      </cc:Work>
    </rdf:RDF>
  </metadata>
  <defs
     id="defs711">
    <style
       type="text/css"
       id="style709">*{stroke-linecap:butt;stroke-linejoin:round;}</style>
  </defs>
  <g
     id="figure_1">
    <g
       id="patch_1">
      <path
         d="M 0 301.581673  L 500.4 301.581673  L 500.4 0  L 0 0  z "
         style="fill:#ffffff;"
         id="path713" />
    </g>
    <g
       id="axes_1">
      <g
         id="patch_2">
        <path
           d="M 24.7 36.296777  L 493.2 36.296777  L 493.2 10.515293  L 24.7 10.515293  z "
           style="fill:none;"
           id="path716" />
      </g>
      <g
         id="line2d_1">
        <path
           clip-path="url(#p155043dc7d)"
           d="M 45.995455 34.14832  L 232.797687 34.14832  L 232.797687 31.536298  L 233.865129 31.536298  L 233.865129 31.246073  L 234.93257 31.246073  L 234.93257 30.923602  L 236.000011 30.923602  L 236.000011 30.565299  L 237.067453 30.565299  L 237.067453 30.167186  L 238.134894 30.167186  L 238.134894 29.724838  L 239.202335 29.724838  L 239.202335 29.23334  L 240.269777 29.23334  L 240.269777 28.687231  L 241.337218 28.687231  L 241.337218 28.080443  L 242.404659 28.080443  L 242.404659 27.406234  L 243.472101 27.406234  L 243.472101 26.657114  L 244.539542 26.657114  L 244.539542 25.824758  L 245.606983 25.824758  L 245.606983 24.899917  L 246.674425 24.899917  L 246.674425 23.872317  L 247.741866 23.872317  L 247.741866 22.730539  L 248.809307 22.730539  L 248.809307 21.461896  L 249.876749 21.461896  L 249.876749 20.052294  L 250.94419 20.052294  L 250.94419 18.486069  L 252.011631 18.486069  L 252.011631 16.745818  L 253.079073 16.745818  L 253.079073 14.812207  L 254.146514 14.812207  L 254.146514 12.66375  L 255.213955 12.66375  L 255.213955 34.14832  L 372.632502 34.14832  L 372.632502 29.724838  L 373.699943 29.724838  L 373.699943 29.23334  L 374.767384 29.23334  L 374.767384 28.687231  L 375.834826 28.687231  L 375.834826 28.080443  L 376.902267 28.080443  L 376.902267 27.406234  L 377.969708 27.406234  L 377.969708 26.657114  L 379.03715 26.657114  L 379.03715 25.824758  L 380.104591 25.824758  L 380.104591 24.899917  L 381.172032 24.899917  L 381.172032 23.872317  L 382.239474 23.872317  L 382.239474 22.730539  L 383.306915 22.730539  L 383.306915 21.461896  L 384.374356 21.461896  L 384.374356 20.052294  L 385.441798 20.052294  L 385.441798 18.486069  L 386.509239 18.486069  L 386.509239 16.745818  L 387.57668 16.745818  L 387.57668 14.812207  L 388.644122 14.812207  L 388.644122 12.66375  L 389.711563 12.66375  L 389.711563 34.14832  L 471.904545 34.14832  L 471.904545 34.14832  "
           style="fill:none;stroke:#000000;stroke-linecap:round;stroke-opacity:0.2;stroke-width:2;"
           id="path719" />
      </g>
      <g
         id="line2d_2">
        <path
           clip-path="url(#p155043dc7d)"
           d="M 45.995455 34.144592  L 45.995455 34.141277  L 54.534985 34.186923  L 54.534985 34.316113  L 56.669868 34.267973  L 56.669868 34.191808  L 59.872192 34.132864  L 59.872192 34.064548  L 66.27684 34.123955  L 66.27684 34.212799  L 84.423342 34.11449  L 84.423342 34.070304  L 90.82799 34.150454  L 90.82799 34.202402  L 106.83961 34.129665  L 106.83961 34.067864  L 112.176817 34.137107  L 112.176817 31.832021  L 113.244258 31.832021  L 113.244258 32.378249  L 114.3117 32.378249  L 114.3117 32.108406  L 115.379141 32.108406  L 115.379141 31.20353  L 116.446582 31.20353  L 116.446582 30.526842  L 117.514024 30.526842  L 117.514024 30.044272  L 118.581465 30.044272  L 118.581465 29.594949  L 119.648906 29.594949  L 119.648906 29.320576  L 121.783789 29.264184  L 121.783789 28.863053  L 122.85123 28.863053  L 122.85123 28.661864  L 123.918672 28.661864  L 123.918672 28.300515  L 124.986113 28.300515  L 124.986113 27.675348  L 126.053554 27.675348  L 126.053554 26.967224  L 127.120996 26.967224  L 127.120996 26.297186  L 128.188437 26.297186  L 128.188437 25.663245  L 129.255878 25.663245  L 129.255878 25.532388  L 131.390761 25.507072  L 131.390761 25.698847  L 132.458202 25.698847  L 132.458202 26.073426  L 133.525644 26.073426  L 133.525644 26.618273  L 134.593085 26.618273  L 134.593085 27.404548  L 135.660526 27.404548  L 135.660526 28.171012  L 136.727968 28.171012  L 136.727968 29.246699  L 137.795409 29.246699  L 137.795409 30.559437  L 138.86285 30.559437  L 138.86285 32.158046  L 139.930292 32.158046  L 139.930292 33.996708  L 140.997733 33.996708  L 140.997733 35.45411  L 142.065174 35.45411  L 142.065174 36.206977  L 143.132616 36.206977  L 143.132616 36.628881  L 149.537264 36.576913  L 149.537264 36.435292  L 150.604705 36.435292  L 150.604705 36.324045  L 152.739588 36.225007  L 152.739588 36.13055  L 154.87447 36.041311  L 154.87447 35.95644  L 157.009353 35.875307  L 157.009353 35.797541  L 159.144236 35.722927  L 159.144236 35.651342  L 161.279118 35.582695  L 161.279118 35.516919  L 163.414001 35.453943  L 163.414001 35.393689  L 168.751208 35.300175  L 168.751208 35.117054  L 170.88609 35.047543  L 170.88609 35.005371  L 175.155856 34.905114  L 175.155856 34.872635  L 179.425621 34.771437  L 179.425621 34.733124  L 182.627945 34.74821  L 182.627945 34.618534  L 191.167476 34.527921  L 191.167476 34.499532  L 201.841889 34.424552  L 201.841889 34.308133  L 232.797687 34.256226  L 232.797687 32.301123  L 236.000011 32.407427  L 236.000011 31.862079  L 237.067453 31.862079  L 237.067453 31.106463  L 238.134894 31.106463  L 238.134894 30.727346  L 241.337218 30.715896  L 241.337218 30.573354  L 242.404659 30.573354  L 242.404659 30.259619  L 244.539542 30.182364  L 244.539542 29.68285  L 245.606983 29.68285  L 245.606983 28.897595  L 246.674425 28.897595  L 246.674425 28.492584  L 247.741866 28.492584  L 247.741866 27.838201  L 248.809307 27.838201  L 248.809307 27.655664  L 249.876749 27.655664  L 249.876749 27.461932  L 250.94419 27.461932  L 250.94419 27.669412  L 252.011631 27.669412  L 252.011631 27.937646  L 253.079073 27.937646  L 253.079073 28.584056  L 254.146514 28.584056  L 254.146514 29.521144  L 255.213955 29.521144  L 255.213955 31.585067  L 256.281397 31.585067  L 256.281397 32.166749  L 257.348838 32.166749  L 257.348838 31.741897  L 258.416279 31.741897  L 258.416279 31.29316  L 259.483721 31.29316  L 259.483721 31.064477  L 260.551162 31.064477  L 260.551162 30.94146  L 261.618603 30.94146  L 261.618603 31.062297  L 266.95581 31.165586  L 266.95581 31.275087  L 268.023251 31.275087  L 268.023251 31.392947  L 269.090693 31.392947  L 269.090693 31.513836  L 270.158134 31.513836  L 270.158134 31.634592  L 271.225575 31.634592  L 271.225575 31.753238  L 273.360458 31.821095  L 273.360458 32.00381  L 274.427899 32.00381  L 274.427899 32.171902  L 275.495341 32.171902  L 275.495341 32.335333  L 278.697665 32.413765  L 278.697665 32.465505  L 279.765106 32.465505  L 279.765106 32.637237  L 281.899989 32.700309  L 281.899989 32.822891  L 287.237195 32.925012  L 287.237195 32.975729  L 290.439519 33.079138  L 290.439519 33.128676  L 293.641843 33.221445  L 293.641843 33.264603  L 295.776726 33.305679  L 295.776726 33.442867  L 304.316257 33.507707  L 304.316257 33.568512  L 308.586022 33.640971  L 308.586022 33.680416  L 313.923229 33.778739  L 313.923229 33.795835  L 323.530201 33.895176  L 323.530201 33.90829  L 336.339496 34.003747  L 336.339496 34.101077  L 368.362736 34.201344  L 368.362736 34.267637  L 371.56506 34.161323  L 371.56506 34.125161  L 372.632502 34.125161  L 372.632502 32.420917  L 373.699943 32.420917  L 373.699943 32.957152  L 375.834826 32.877441  L 375.834826 32.056755  L 376.902267 32.056755  L 376.902267 30.929996  L 377.969708 30.929996  L 377.969708 30.709703  L 379.03715 30.709703  L 379.03715 30.974363  L 380.104591 30.974363  L 380.104591 30.692533  L 381.172032 30.692533  L 381.172032 30.313116  L 382.239474 30.313116  L 382.239474 29.847735  L 383.306915 29.847735  L 383.306915 29.579206  L 384.374356 29.579206  L 384.374356 29.057663  L 385.441798 29.057663  L 385.441798 28.476879  L 386.509239 28.476879  L 386.509239 27.637013  L 387.57668 27.637013  L 387.57668 27.102486  L 388.644122 27.102486  L 388.644122 26.699288  L 389.711563 26.699288  L 389.711563 31.05375  L 390.779004 31.05375  L 390.779004 31.330622  L 397.183652 31.392868  L 397.183652 31.445114  L 399.318535 31.518532  L 399.318535 31.605145  L 401.453418 31.69917  L 401.453418 31.796654  L 402.520859 31.796654  L 402.520859 32.010743  L 404.655742 32.093409  L 404.655742 32.132466  L 407.858066 32.230551  L 407.858066 32.341133  L 409.992948 32.414696  L 409.992948 32.492605  L 412.127831 32.568416  L 412.127831 32.642363  L 414.262714 32.713592  L 414.262714 32.890181  L 415.330155 32.890181  L 415.330155 33.005038  L 420.667362 33.071464  L 420.667362 33.227203  L 428.139451 33.332294  L 428.139451 33.374377  L 429.206892 33.374377  L 429.206892 33.500326  L 432.409216 33.591756  L 432.409216 33.660342  L 440.948747 33.669921  L 440.948747 33.789098  L 455.892925 33.889018  L 455.892925 33.902157  L 458.027808 34.009245  L 458.027808 34.020937  L 466.567339 33.977155  L 466.567339 30.183022  L 467.63478 30.183022  L 467.63478 29.516035  L 468.702221 29.516035  L 468.702221 28.845849  L 469.769663 28.845849  L 469.769663 28.084818  L 470.837104 28.084818  L 470.837104 27.904774  L 471.904545 27.904774  L 471.904545 27.904774  "
           style="fill:none;stroke:#e41a1c;stroke-linecap:round;stroke-width:2;"
           id="path722" />
      </g>
      <g
         id="patch_3">
        <path
           d="M 24.7 36.296777  L 24.7 10.515293  "
           style="fill:none;stroke:#000000;stroke-linecap:square;stroke-linejoin:miter;stroke-width:1.25;"
           id="path725" />
      </g>
      <g
         id="patch_4">
        <path
           d="M 493.2 36.296777  L 493.2 10.515293  "
           style="fill:none;stroke:#000000;stroke-linecap:square;stroke-linejoin:miter;stroke-width:1.25;"
           id="path728" />
      </g>
      <g
         id="patch_5">
        <path
           d="M 24.7 36.296777  L 493.2 36.296777  "
           style="fill:none;stroke:#000000;stroke-linecap:square;stroke-linejoin:miter;stroke-width:1.25;"
           id="path731" />
      </g>
      <g
         id="patch_6">
        <path
           d="M 24.7 10.515293  L 493.2 10.515293  "
           style="fill:none;stroke:#000000;stroke-linecap:square;stroke-linejoin:miter;stroke-width:1.25;"
           id="path734" />
      </g>
      <g
         id="matplotlib.axis_1">
        <g
           id="xtick_1" />
        <g
           id="xtick_2" />
        <g
           id="xtick_3" />
        <g
           id="xtick_4" />
        <g
           id="xtick_5" />
        <g
           id="xtick_6" />
        <g
           id="xtick_7" />
        <g
           id="xtick_8" />
        <g
           id="xtick_9" />
      </g>
      <g
         id="matplotlib.axis_2">
        <g
           id="ytick_1">
          <g
             id="text_1">
            <!-- 0 -->
            <g
               transform="translate(7.2 39.61207)scale(0.16 -0.16)"
               id="g752">
              <defs
                 id="defs748">
                <path
                   d="M 3046 2112  Q 3046 1683 2963 1302  Q 2880 922 2717 602  Q 2554 282 2266 96  Q 1978 -90 1600 -90  Q 1210 -90 915 108  Q 621 307 461 640  Q 301 973 227 1350  Q 154 1728 154 2150  Q 154 2746 301 3222  Q 448 3699 790 4012  Q 1133 4326 1626 4326  Q 2253 4326 2649 3712  Q 3046 3098 3046 2112  z M 2432 2080  Q 2432 3091 2217 3625  Q 2003 4160 1587 4160  Q 1190 4160 979 3622  Q 768 3085 768 2106  Q 768 1120 979 598  Q 1190 77 1600 77  Q 2003 77 2217 598  Q 2432 1120 2432 2080  z "
                   id="STIXGeneral-Regular-30"
                   transform="scale(0.015625)" />
              </defs>
              <use
                 xlink:href="#STIXGeneral-Regular-30"
                 id="use750" />
            </g>
          </g>
        </g>
        <g
           id="ytick_2">
          <g
             id="text_2">
            <!-- 1 -->
            <g
               transform="translate(7.2 18.1275)scale(0.16 -0.16)"
               id="g761">
              <defs
                 id="defs757">
                <path
                   d="M 2522 0  L 755 0  L 755 96  Q 1107 115 1235 227  Q 1363 339 1363 608  L 1363 3482  Q 1363 3795 1171 3795  Q 1082 3795 883 3718  L 710 3654  L 710 3744  L 1856 4326  L 1914 4307  L 1914 486  Q 1914 275 2042 185  Q 2170 96 2522 96  L 2522 0  z "
                   id="STIXGeneral-Regular-31"
                   transform="scale(0.015625)" />
              </defs>
              <use
                 xlink:href="#STIXGeneral-Regular-31"
                 id="use759" />
            </g>
          </g>
        </g>
      </g>
    </g>
    <g
       id="axes_2">
      <g
         id="patch_7">
        <path
           d="M 24.7 90.018001  L 493.2 90.018001  L 493.2 64.236517  L 24.7 64.236517  z "
           style="fill:none;"
           id="path767" />
      </g>
      <g
         id="line2d_3">
        <path
           clip-path="url(#p87d45964da)"
           d="M 45.995455 87.869544  L 208.246537 87.869544  L 208.246537 83.446065  L 209.313978 83.446065  L 209.313978 82.954562  L 210.381419 82.954562  L 210.381419 82.408467  L 211.448861 82.408467  L 211.448861 81.801679  L 212.516302 81.801679  L 212.516302 81.127471  L 213.583743 81.127471  L 213.583743 80.378347  L 214.651185 80.378347  L 214.651185 79.545992  L 215.718626 79.545992  L 215.718626 78.621146  L 216.786067 78.621146  L 216.786067 77.593539  L 217.853509 77.593539  L 217.853509 76.451763  L 218.92095 76.451763  L 218.92095 75.18312  L 219.988391 75.18312  L 219.988391 73.773518  L 221.055833 73.773518  L 221.055833 72.207293  L 222.123274 72.207293  L 222.123274 70.467042  L 223.190715 70.467042  L 223.190715 68.533431  L 224.258157 68.533431  L 224.258157 66.384974  L 225.325598 66.384974  L 225.325598 87.869544  L 414.262714 87.869544  L 414.262714 82.954562  L 415.330155 82.954562  L 415.330155 82.408467  L 416.397596 82.408467  L 416.397596 81.801679  L 417.465038 81.801679  L 417.465038 81.127471  L 418.532479 81.127471  L 418.532479 80.378347  L 419.59992 80.378347  L 419.59992 79.545992  L 420.667362 79.545992  L 420.667362 78.621146  L 421.734803 78.621146  L 421.734803 77.593539  L 422.802244 77.593539  L 422.802244 76.451763  L 423.869686 76.451763  L 423.869686 75.18312  L 424.937127 75.18312  L 424.937127 73.773518  L 426.004568 73.773518  L 426.004568 72.207293  L 427.07201 72.207293  L 427.07201 70.467042  L 428.139451 70.467042  L 428.139451 68.533431  L 429.206892 68.533431  L 429.206892 66.384974  L 430.274334 66.384974  L 430.274334 87.869544  L 471.904545 87.869544  L 471.904545 87.869544  "
           style="fill:none;stroke:#000000;stroke-linecap:round;stroke-opacity:0.2;stroke-width:2;"
           id="path770" />
      </g>
      <g
         id="line2d_4">
        <path
           clip-path="url(#p87d45964da)"
           d="M 45.995455 87.694875  L 45.995455 87.703597  L 70.546605 87.794477  L 70.546605 87.831345  L 94.030314 87.823675  L 94.030314 89.260563  L 95.097756 89.260563  L 95.097756 89.621568  L 96.165197 89.621568  L 96.165197 89.341452  L 97.232638 89.341452  L 97.232638 88.951722  L 98.30008 88.951722  L 98.30008 88.663528  L 99.367521 88.663528  L 99.367521 88.388354  L 100.434962 88.388354  L 100.434962 88.143644  L 101.502404 88.143644  L 101.502404 87.938617  L 102.569845 87.938617  L 102.569845 87.730281  L 103.637286 87.730281  L 103.637286 87.55385  L 112.176817 87.479277  L 112.176817 87.409517  L 115.379141 87.500396  L 115.379141 87.536576  L 118.581465 87.591061  L 118.581465 87.648984  L 123.918672 87.695584  L 123.918672 87.769125  L 130.32332 87.723514  L 130.32332 87.642818  L 134.593085 87.750649  L 134.593085 87.77035  L 144.200057 87.826854  L 144.200057 87.917648  L 145.267498 87.917648  L 145.267498 87.793059  L 146.33494 87.793059  L 146.33494 87.907228  L 160.211677 87.825243  L 160.211677 87.792114  L 164.481442 87.898656  L 164.481442 87.957201  L 166.616325 87.86789  L 166.616325 87.790997  L 167.683766 87.790997  L 167.683766 87.92766  L 179.425621 87.837146  L 179.425621 87.758555  L 182.627945 87.855966  L 182.627945 87.959844  L 203.976771 87.898312  L 203.976771 87.846491  L 208.246537 87.772176  L 208.246537 86.366376  L 209.313978 86.366376  L 209.313978 85.145172  L 210.381419 85.145172  L 210.381419 84.802128  L 211.448861 84.802128  L 211.448861 84.198325  L 212.516302 84.198325  L 212.516302 83.679623  L 213.583743 83.679623  L 213.583743 82.770955  L 214.651185 82.770955  L 214.651185 82.122572  L 215.718626 82.122572  L 215.718626 81.335743  L 216.786067 81.335743  L 216.786067 80.423207  L 217.853509 80.423207  L 217.853509 79.421253  L 218.92095 79.421253  L 218.92095 78.636443  L 219.988391 78.636443  L 219.988391 77.489532  L 221.055833 77.489532  L 221.055833 76.611286  L 222.123274 76.611286  L 222.123274 75.922426  L 223.190715 75.922426  L 223.190715 75.412533  L 224.258157 75.412533  L 224.258157 75.052838  L 225.325598 75.052838  L 225.325598 87.50349  L 226.393039 87.50349  L 226.393039 86.09537  L 227.460481 86.09537  L 227.460481 86.636072  L 228.527922 86.636072  L 228.527922 87.156751  L 229.595363 87.156751  L 229.595363 87.542291  L 230.662805 87.542291  L 230.662805 87.783198  L 232.797687 87.697088  L 232.797687 87.919797  L 237.067453 87.815145  L 237.067453 87.739133  L 239.202335 87.654355  L 239.202335 87.566161  L 241.337218 87.478396  L 241.337218 87.39364  L 243.472101 87.313545  L 243.472101 87.23908  L 245.606983 87.170694  L 245.606983 87.108518  L 248.809307 87.002126  L 248.809307 86.957309  L 253.079073 86.852099  L 253.079073 86.733483  L 264.820927 86.656418  L 264.820927 86.615232  L 273.360458 86.721774  L 273.360458 86.792458  L 280.832547 86.866773  L 280.832547 86.904758  L 293.641843 86.97598  L 293.641843 87.050595  L 304.316257 87.160596  L 304.316257 87.172757  L 311.788346 87.282564  L 311.788346 85.862262  L 313.923229 85.859663  L 313.923229 85.700591  L 318.192994 85.757933  L 318.192994 85.887571  L 319.260435 85.887571  L 319.260435 86.038608  L 320.327877 86.038608  L 320.327877 86.197937  L 321.395318 86.197937  L 321.395318 86.420668  L 323.530201 86.484391  L 323.530201 86.687893  L 324.597642 86.687893  L 324.597642 86.808744  L 326.732524 86.918723  L 326.732524 87.014372  L 331.00229 87.117971  L 331.00229 87.13967  L 334.204614 87.196712  L 334.204614 87.275238  L 336.339496 87.278998  L 336.339496 87.392802  L 337.406938 87.392802  L 337.406938 87.525877  L 339.54182 87.547018  L 339.54182 87.645697  L 343.811586 87.706799  L 343.811586 87.75877  L 348.081351 87.800063  L 348.081351 87.92781  L 360.890647 88.016842  L 360.890647 88.040196  L 388.644122 88.037317  L 388.644122 87.916617  L 402.520859 87.861466  L 402.520859 87.798473  L 405.723183 87.880244  L 405.723183 87.912578  L 414.262714 87.93359  L 414.262714 84.297627  L 415.330155 84.297627  L 415.330155 85.520894  L 418.532479 85.60709  L 418.532479 85.646321  L 423.869686 85.747041  L 423.869686 85.813621  L 426.004568 85.892835  L 426.004568 85.987582  L 427.07201 85.987582  L 427.07201 86.120034  L 429.206892 86.124159  L 429.206892 86.270448  L 430.274334 86.270448  L 430.274334 92.033082  L 431.341775 92.033082  L 431.341775 91.899384  L 432.409216 91.899384  L 432.409216 90.794067  L 433.476658 90.794067  L 433.476658 89.988524  L 434.544099 89.988524  L 434.544099 89.362249  L 435.61154 89.362249  L 435.61154 88.845717  L 436.678982 88.845717  L 436.678982 88.402405  L 437.746423 88.402405  L 437.746423 88.012288  L 438.813864 88.012288  L 438.813864 87.706326  L 439.881306 87.706326  L 439.881306 87.362766  L 440.948747 87.362766  L 440.948747 87.119539  L 442.016188 87.119539  L 442.016188 86.840648  L 443.08363 86.840648  L 443.08363 86.613384  L 444.151071 86.613384  L 444.151071 86.418197  L 445.218512 86.418197  L 445.218512 86.280309  L 446.285954 86.280309  L 446.285954 86.066667  L 447.353395 86.066667  L 447.353395 85.873005  L 448.420836 85.873005  L 448.420836 85.730605  L 450.555719 85.62127  L 450.555719 85.533527  L 452.690602 85.461124  L 452.690602 85.40043  L 455.892925 85.30607  L 455.892925 85.26989  L 469.769663 85.201225  L 469.769663 85.086992  L 471.904545 85.047331  L 471.904545 85.047331  "
           style="fill:none;stroke:#377eb8;stroke-linecap:round;stroke-width:2;"
           id="path773" />
      </g>
      <g
         id="patch_8">
        <path
           d="M 24.7 90.018001  L 24.7 64.236517  "
           style="fill:none;stroke:#000000;stroke-linecap:square;stroke-linejoin:miter;stroke-width:1.25;"
           id="path776" />
      </g>
      <g
         id="patch_9">
        <path
           d="M 493.2 90.018001  L 493.2 64.236517  "
           style="fill:none;stroke:#000000;stroke-linecap:square;stroke-linejoin:miter;stroke-width:1.25;"
           id="path779" />
      </g>
      <g
         id="patch_10">
        <path
           d="M 24.7 90.018001  L 493.2 90.018001  "
           style="fill:none;stroke:#000000;stroke-linecap:square;stroke-linejoin:miter;stroke-width:1.25;"
           id="path782" />
      </g>
      <g
         id="patch_11">
        <path
           d="M 24.7 64.236517  L 493.2 64.236517  "
           style="fill:none;stroke:#000000;stroke-linecap:square;stroke-linejoin:miter;stroke-width:1.25;"
           id="path785" />
      </g>
      <g
         id="matplotlib.axis_3">
        <g
           id="xtick_10" />
        <g
           id="xtick_11" />
        <g
           id="xtick_12" />
        <g
           id="xtick_13" />
        <g
           id="xtick_14" />
        <g
           id="xtick_15" />
        <g
           id="xtick_16" />
        <g
           id="xtick_17" />
        <g
           id="xtick_18" />
      </g>
      <g
         id="matplotlib.axis_4">
        <g
           id="ytick_3">
          <g
             id="text_3">
            <!-- 0 -->
            <g
               transform="translate(7.2 93.333294)scale(0.16 -0.16)"
               id="g800">
              <use
                 xlink:href="#STIXGeneral-Regular-30"
                 id="use798" />
            </g>
          </g>
        </g>
        <g
           id="ytick_4">
          <g
             id="text_4">
            <!-- 1 -->
            <g
               transform="translate(7.2 71.848724)scale(0.16 -0.16)"
               id="g806">
              <use
                 xlink:href="#STIXGeneral-Regular-31"
                 id="use804" />
            </g>
          </g>
        </g>
      </g>
    </g>
    <g
       id="axes_3">
      <g
         id="patch_12">
        <path
           d="M 24.7 143.739225  L 493.2 143.739225  L 493.2 117.957741  L 24.7 117.957741  z "
           style="fill:none;"
           id="path812" />
      </g>
      <g
         id="line2d_5">
        <path
           clip-path="url(#pb8ba6e4408)"
           d="M 45.995455 141.590768  L 69.479164 141.590768  L 69.479164 138.366042  L 70.546605 138.366042  L 70.546605 138.007743  L 71.614046 138.007743  L 71.614046 137.609634  L 72.681488 137.609634  L 72.681488 137.167289  L 73.748929 137.167289  L 73.748929 136.675786  L 74.81637 136.675786  L 74.81637 136.129691  L 75.883812 136.129691  L 75.883812 135.522903  L 76.951253 135.522903  L 76.951253 134.848695  L 78.018694 134.848695  L 78.018694 134.099571  L 79.086136 134.099571  L 79.086136 133.267216  L 80.153577 133.267216  L 80.153577 132.34237  L 81.221018 132.34237  L 81.221018 131.314763  L 82.28846 131.314763  L 82.28846 130.172987  L 83.355901 130.172987  L 83.355901 128.904344  L 84.423342 128.904344  L 84.423342 127.494742  L 85.490784 127.494742  L 85.490784 125.928516  L 86.558225 125.928516  L 86.558225 124.188266  L 87.625666 124.188266  L 87.625666 122.254655  L 88.693108 122.254655  L 88.693108 120.106198  L 89.760549 120.106198  L 89.760549 141.590768  L 191.167476 141.590768  L 191.167476 138.366042  L 192.234917 138.366042  L 192.234917 138.007743  L 193.302358 138.007743  L 193.302358 137.609634  L 194.369799 137.609634  L 194.369799 137.167289  L 195.437241 137.167289  L 195.437241 136.675786  L 196.504682 136.675786  L 196.504682 136.129691  L 197.572123 136.129691  L 197.572123 135.522903  L 198.639565 135.522903  L 198.639565 134.848695  L 199.707006 134.848695  L 199.707006 134.099571  L 200.774447 134.099571  L 200.774447 133.267216  L 201.841889 133.267216  L 201.841889 132.34237  L 202.90933 132.34237  L 202.90933 131.314763  L 203.976771 131.314763  L 203.976771 130.172987  L 205.044213 130.172987  L 205.044213 128.904344  L 206.111654 128.904344  L 206.111654 127.494742  L 207.179095 127.494742  L 207.179095 125.928516  L 208.246537 125.928516  L 208.246537 124.188266  L 209.313978 124.188266  L 209.313978 122.254655  L 210.381419 122.254655  L 210.381419 120.106198  L 211.448861 120.106198  L 211.448861 141.590768  L 316.058111 141.590768  L 316.058111 139.239948  L 317.125553 139.239948  L 317.125553 138.978739  L 318.192994 138.978739  L 318.192994 138.688525  L 319.260435 138.688525  L 319.260435 138.366042  L 320.327877 138.366042  L 320.327877 138.007743  L 321.395318 138.007743  L 321.395318 137.609634  L 322.462759 137.609634  L 322.462759 137.167289  L 323.530201 137.167289  L 323.530201 136.675786  L 324.597642 136.675786  L 324.597642 136.129691  L 325.665083 136.129691  L 325.665083 135.522903  L 326.732524 135.522903  L 326.732524 134.848695  L 327.799966 134.848695  L 327.799966 134.099571  L 328.867407 134.099571  L 328.867407 133.267216  L 329.934848 133.267216  L 329.934848 132.34237  L 331.00229 132.34237  L 331.00229 131.314763  L 332.069731 131.314763  L 332.069731 130.172987  L 333.137172 130.172987  L 333.137172 128.904344  L 334.204614 128.904344  L 334.204614 127.494742  L 335.272055 127.494742  L 335.272055 125.928516  L 336.339496 125.928516  L 336.339496 124.188266  L 337.406938 124.188266  L 337.406938 122.254655  L 338.474379 122.254655  L 338.474379 120.106198  L 339.54182 120.106198  L 339.54182 141.590768  L 471.904545 141.590768  L 471.904545 141.590768  "
           style="fill:none;stroke:#000000;stroke-linecap:round;stroke-opacity:0.2;stroke-width:2;"
           id="path815" />
      </g>
      <g
         id="line2d_6">
        <path
           clip-path="url(#pb8ba6e4408)"
           d="M 45.995455 140.919504  L 45.995455 140.912737  L 48.130337 140.904787  L 48.130337 140.505303  L 49.197779 140.505303  L 49.197779 141.03421  L 50.26522 141.03421  L 50.26522 140.868307  L 60.939633 140.880145  L 60.939633 140.489383  L 62.007075 140.489383  L 62.007075 140.764751  L 63.074516 140.764751  L 63.074516 141.068607  L 64.141957 141.068607  L 64.141957 140.82508  L 66.27684 140.916668  L 66.27684 140.967587  L 69.479164 141.00207  L 69.479164 136.605532  L 70.546605 136.605532  L 70.546605 136.798463  L 71.614046 136.798463  L 71.614046 134.51446  L 72.681488 134.51446  L 72.681488 132.637804  L 73.748929 132.637804  L 73.748929 131.292032  L 74.81637 131.292032  L 74.81637 130.457657  L 75.883812 130.457657  L 75.883812 130.01037  L 76.951253 130.01037  L 76.951253 129.85132  L 79.086136 129.904623  L 79.086136 130.111047  L 80.153577 130.111047  L 80.153577 130.424635  L 81.221018 130.424635  L 81.221018 130.810198  L 82.28846 130.810198  L 82.28846 131.241049  L 83.355901 131.241049  L 83.355901 131.697295  L 84.423342 131.697295  L 84.423342 132.16437  L 85.490784 132.16437  L 85.490784 132.884232  L 87.625666 132.889689  L 87.625666 133.581664  L 88.693108 133.581664  L 88.693108 134.062596  L 89.760549 134.062596  L 89.760549 145.953984  L 90.82799 145.953984  L 90.82799 146.98172  L 91.895432 146.98172  L 91.895432 144.843511  L 92.962873 144.843511  L 92.962873 145.072858  L 95.097756 145.16101  L 95.097756 145.194633  L 96.165197 145.194633  L 96.165197 144.956498  L 97.232638 144.956498  L 97.232638 145.090798  L 98.30008 145.090798  L 98.30008 145.323734  L 99.367521 145.323734  L 99.367521 145.466112  L 101.502404 145.449333  L 101.502404 145.28373  L 102.569845 145.28373  L 102.569845 145.008899  L 103.637286 145.008899  L 103.637286 145.212766  L 104.704728 145.212766  L 104.704728 143.878187  L 106.83961 143.948098  L 106.83961 143.664373  L 107.907052 143.664373  L 107.907052 144.029525  L 108.974493 144.029525  L 108.974493 142.936218  L 110.041934 142.936218  L 110.041934 142.389865  L 113.244258 142.413541  L 113.244258 142.212918  L 114.3117 142.212918  L 114.3117 142.701069  L 115.379141 142.701069  L 115.379141 141.64261  L 117.514024 141.679607  L 117.514024 140.997665  L 118.581465 140.997665  L 118.581465 141.319869  L 121.783789 141.236595  L 121.783789 141.123414  L 122.85123 141.123414  L 122.85123 141.01004  L 123.918672 141.01004  L 123.918672 141.388362  L 124.986113 141.388362  L 124.986113 140.717915  L 127.120996 140.81524  L 127.120996 141.244716  L 128.188437 141.244716  L 128.188437 140.636982  L 129.255878 140.636982  L 129.255878 140.761743  L 133.525644 140.657328  L 133.525644 140.603187  L 137.795409 140.546317  L 137.795409 140.47052  L 143.132616 140.367286  L 143.132616 140.347607  L 144.200057 140.347607  L 144.200057 139.882659  L 145.267498 139.882659  L 145.267498 140.167372  L 146.33494 140.167372  L 146.33494 140.341698  L 150.604705 140.407484  L 150.604705 142.270905  L 151.672146 142.270905  L 151.672146 140.207291  L 152.739588 140.207291  L 152.739588 140.455867  L 159.144236 140.390833  L 159.144236 140.792982  L 160.211677 140.792982  L 160.211677 140.290801  L 161.279118 140.290801  L 161.279118 140.480768  L 164.481442 140.578888  L 164.481442 140.596355  L 166.616325 140.604777  L 166.616325 140.39788  L 167.683766 140.39788  L 167.683766 141.136842  L 168.751208 141.136842  L 168.751208 140.753364  L 169.818649 140.753364  L 169.818649 141.330289  L 170.88609 141.330289  L 170.88609 140.990812  L 175.155856 141.04375  L 175.155856 141.349625  L 176.223297 141.349625  L 176.223297 141.033501  L 179.425621 140.977599  L 179.425621 140.468264  L 180.493062 140.468264  L 180.493062 140.739378  L 181.560504 140.739378  L 181.560504 141.256125  L 182.627945 141.256125  L 182.627945 140.815476  L 183.695386 140.815476  L 183.695386 142.157982  L 184.762828 142.157982  L 184.762828 140.932395  L 185.830269 140.932395  L 185.830269 141.131643  L 190.100034 141.037154  L 190.100034 141.014187  L 191.167476 141.014187  L 191.167476 134.587249  L 192.234917 134.587249  L 192.234917 134.280128  L 193.302358 134.280128  L 193.302358 131.481419  L 194.369799 131.481419  L 194.369799 129.355198  L 195.437241 129.355198  L 195.437241 128.074202  L 196.504682 128.074202  L 196.504682 127.380143  L 197.572123 127.380143  L 197.572123 126.154749  L 198.639565 126.154749  L 198.639565 127.068832  L 199.707006 127.068832  L 199.707006 127.4296  L 200.774447 127.4296  L 200.774447 127.833897  L 201.841889 127.833897  L 201.841889 130.952447  L 202.90933 130.952447  L 202.90933 129.069518  L 203.976771 129.069518  L 203.976771 129.401218  L 205.044213 129.401218  L 205.044213 129.882322  L 206.111654 129.882322  L 206.111654 130.411229  L 207.179095 130.411229  L 207.179095 130.945056  L 208.246537 130.945056  L 208.246537 131.472567  L 209.313978 131.472567  L 209.313978 131.987208  L 210.381419 131.987208  L 210.381419 132.484791  L 211.448861 132.484791  L 211.448861 142.047552  L 212.516302 142.047552  L 212.516302 143.691358  L 213.583743 143.691358  L 213.583743 143.129106  L 214.651185 143.129106  L 214.651185 142.526593  L 215.718626 142.526593  L 215.718626 142.367371  L 216.786067 142.367371  L 216.786067 142.62742  L 217.853509 142.62742  L 217.853509 143.040611  L 218.92095 143.040611  L 218.92095 142.740687  L 219.988391 142.740687  L 219.988391 143.170529  L 221.055833 143.170529  L 221.055833 143.439558  L 222.123274 143.439558  L 222.123274 143.551257  L 224.258157 143.545005  L 224.258157 143.39674  L 225.325598 143.39674  L 225.325598 143.169476  L 226.393039 143.169476  L 226.393039 142.90296  L 227.460481 142.90296  L 227.460481 142.623424  L 228.527922 142.623424  L 228.527922 142.346767  L 229.595363 142.346767  L 229.595363 142.082314  L 230.662805 142.082314  L 230.662805 141.835091  L 231.730246 141.835091  L 231.730246 141.678576  L 232.797687 141.678576  L 232.797687 141.462162  L 234.93257 141.369885  L 234.93257 141.240935  L 236.000011 141.240935  L 236.000011 141.10251  L 237.067453 141.10251  L 237.067453 140.965202  L 238.134894 140.965202  L 238.134894 140.835564  L 239.202335 140.835564  L 239.202335 140.716497  L 241.337218 140.609117  L 241.337218 140.513467  L 243.472101 140.429119  L 243.472101 140.275182  L 244.539542 140.275182  L 244.539542 140.861668  L 245.606983 140.861668  L 245.606983 140.483239  L 248.809307 140.383894  L 248.809307 140.085344  L 249.876749 140.085344  L 249.876749 140.378802  L 254.146514 140.406947  L 254.146514 140.507495  L 257.348838 140.47458  L 257.348838 141.078512  L 258.416279 141.078512  L 258.416279 140.466373  L 259.483721 140.466373  L 259.483721 140.644094  L 260.551162 140.644094  L 260.551162 140.280918  L 261.618603 140.280918  L 261.618603 141.146124  L 262.686045 141.146124  L 262.686045 140.45677  L 271.225575 140.355191  L 271.225575 140.340646  L 274.427899 140.439732  L 274.427899 140.712586  L 275.495341 140.712586  L 275.495341 140.319397  L 277.630223 140.415154  L 277.630223 140.791886  L 278.697665 140.791886  L 278.697665 140.530891  L 281.899989 140.635414  L 281.899989 140.652945  L 291.506961 140.5753  L 291.506961 141.229935  L 292.574402 141.229935  L 292.574402 140.555169  L 296.844167 140.61466  L 296.844167 140.852924  L 297.911609 140.852924  L 297.911609 140.347112  L 298.97905 140.347112  L 298.97905 140.623017  L 304.316257 140.701608  L 304.316257 141.314842  L 305.383698 141.314842  L 305.383698 140.742751  L 308.586022 140.784044  L 308.586022 141.017732  L 311.788346 141.10324  L 311.788346 141.158133  L 314.99067 141.15809  L 314.99067 141.701134  L 316.058111 141.701134  L 316.058111 136.317058  L 317.125553 136.317058  L 317.125553 137.642699  L 318.192994 137.642699  L 318.192994 136.112375  L 319.260435 136.112375  L 319.260435 134.629789  L 320.327877 134.629789  L 320.327877 133.14875  L 321.395318 133.14875  L 321.395318 132.137085  L 322.462759 132.137085  L 322.462759 131.465584  L 323.530201 131.465584  L 323.530201 131.067626  L 324.597642 131.067626  L 324.597642 130.419608  L 325.665083 130.419608  L 325.665083 131.134722  L 327.799966 131.152812  L 327.799966 131.306018  L 328.867407 131.306018  L 328.867407 130.208479  L 329.934848 130.208479  L 329.934848 131.589464  L 332.069731 131.581365  L 332.069731 132.498305  L 333.137172 132.498305  L 333.137172 132.93833  L 334.204614 132.93833  L 334.204614 133.299378  L 335.272055 133.299378  L 335.272055 133.625901  L 336.339496 133.625901  L 336.339496 133.933839  L 337.406938 133.933839  L 337.406938 134.229252  L 338.474379 134.229252  L 338.474379 134.514632  L 339.54182 134.514632  L 339.54182 141.8086  L 340.609262 141.8086  L 340.609262 143.122017  L 341.676703 143.122017  L 341.676703 142.668757  L 342.744144 142.668757  L 342.744144 142.14984  L 344.879027 142.051677  L 344.879027 142.358326  L 345.946468 142.358326  L 345.946468 142.808277  L 347.01391 142.808277  L 347.01391 143.18705  L 348.081351 143.18705  L 348.081351 142.103433  L 349.148792 142.103433  L 349.148792 143.736969  L 350.216234 143.736969  L 350.216234 143.258873  L 351.283675 143.258873  L 351.283675 143.410533  L 353.418558 143.299436  L 353.418558 143.108911  L 354.485999 143.108911  L 354.485999 142.860678  L 355.55344 142.860678  L 355.55344 142.451139  L 356.620882 142.451139  L 356.620882 142.929816  L 357.688323 142.929816  L 357.688323 142.518687  L 358.755764 142.518687  L 358.755764 141.396806  L 359.823206 141.396806  L 359.823206 142.530912  L 360.890647 142.530912  L 360.890647 142.127689  L 361.958088 142.127689  L 361.958088 141.899695  L 363.02553 141.899695  L 363.02553 141.663279  L 364.092971 141.663279  L 364.092971 141.443577  L 365.160412 141.443577  L 365.160412 141.241451  L 366.227854 141.241451  L 366.227854 141.058166  L 367.295295 141.058166  L 367.295295 140.893551  L 368.362736 140.893551  L 368.362736 140.74679  L 369.430178 140.74679  L 369.430178 140.616765  L 370.497619 140.616765  L 370.497619 140.502145  L 372.632502 140.401705  L 372.632502 140.020461  L 373.699943 140.020461  L 373.699943 140.234748  L 379.03715 140.134265  L 379.03715 140.596162  L 380.104591 140.596162  L 380.104591 140.098364  L 383.306915 140.10019  L 383.306915 139.095765  L 384.374356 139.095765  L 384.374356 140.618097  L 385.441798 140.618097  L 385.441798 140.418377  L 392.913887 140.316819  L 392.913887 140.287299  L 401.453418 140.194808  L 401.453418 139.416508  L 402.520859 139.416508  L 402.520859 140.523716  L 403.5883 140.523716  L 403.5883 140.34997  L 404.655742 140.34997  L 404.655742 140.038229  L 405.723183 140.038229  L 405.723183 140.285752  L 406.790624 140.285752  L 406.790624 140.170853  L 407.858066 140.170853  L 407.858066 140.486504  L 409.992948 140.547477  L 409.992948 140.600867  L 416.397596 140.585376  L 416.397596 140.319075  L 417.465038 140.319075  L 417.465038 140.750528  L 418.532479 140.750528  L 418.532479 140.308505  L 419.59992 140.308505  L 419.59992 140.134157  L 424.937127 140.240635  L 424.937127 139.87138  L 426.004568 139.87138  L 426.004568 140.302403  L 427.07201 140.302403  L 427.07201 140.425531  L 429.206892 140.529602  L 429.206892 140.589695  L 438.813864 140.699932  L 438.813864 140.703069  L 443.08363 140.710245  L 443.08363 140.326122  L 444.151071 140.326122  L 444.151071 140.653977  L 446.285954 140.73102  L 446.285954 140.796935  L 458.027808 140.795839  L 458.027808 141.104293  L 460.162691 141.153278  L 460.162691 140.872496  L 464.432456 140.834554  L 464.432456 139.706485  L 465.499897 139.706485  L 465.499897 139.934995  L 466.567339 139.934995  L 466.567339 141.011909  L 467.63478 141.011909  L 467.63478 140.858639  L 469.769663 140.850539  L 469.769663 140.069747  L 470.837104 140.069747  L 470.837104 141.011995  L 471.904545 141.011995  L 471.904545 141.011995  "
           style="fill:none;stroke:#4daf4a;stroke-linecap:round;stroke-width:2;"
           id="path818" />
      </g>
      <g
         id="patch_13">
        <path
           d="M 24.7 143.739225  L 24.7 117.957741  "
           style="fill:none;stroke:#000000;stroke-linecap:square;stroke-linejoin:miter;stroke-width:1.25;"
           id="path821" />
      </g>
      <g
         id="patch_14">
        <path
           d="M 493.2 143.739225  L 493.2 117.957741  "
           style="fill:none;stroke:#000000;stroke-linecap:square;stroke-linejoin:miter;stroke-width:1.25;"
           id="path824" />
      </g>
      <g
         id="patch_15">
        <path
           d="M 24.7 143.739225  L 493.2 143.739225  "
           style="fill:none;stroke:#000000;stroke-linecap:square;stroke-linejoin:miter;stroke-width:1.25;"
           id="path827" />
      </g>
      <g
         id="patch_16">
        <path
           d="M 24.7 117.957741  L 493.2 117.957741  "
           style="fill:none;stroke:#000000;stroke-linecap:square;stroke-linejoin:miter;stroke-width:1.25;"
           id="path830" />
      </g>
      <g
         id="matplotlib.axis_5">
        <g
           id="xtick_19" />
        <g
           id="xtick_20" />
        <g
           id="xtick_21" />
        <g
           id="xtick_22" />
        <g
           id="xtick_23" />
        <g
           id="xtick_24" />
        <g
           id="xtick_25" />
        <g
           id="xtick_26" />
        <g
           id="xtick_27" />
      </g>
      <g
         id="matplotlib.axis_6">
        <g
           id="ytick_5">
          <g
             id="text_5">
            <!-- 0 -->
            <g
               transform="translate(7.2 147.054518)scale(0.16 -0.16)"
               id="g845">
              <use
                 xlink:href="#STIXGeneral-Regular-30"
                 id="use843" />
            </g>
          </g>
        </g>
        <g
           id="ytick_6">
          <g
             id="text_6">
            <!-- 1 -->
            <g
               transform="translate(7.2 125.569948)scale(0.16 -0.16)"
               id="g851">
              <use
                 xlink:href="#STIXGeneral-Regular-31"
                 id="use849" />
            </g>
          </g>
        </g>
      </g>
    </g>
    <g
       id="axes_4">
      <g
         id="patch_17">
        <path
           d="M 24.7 197.460449  L 493.2 197.460449  L 493.2 171.678965  L 24.7 171.678965  z "
           style="fill:none;"
           id="path857" />
      </g>
      <g
         id="line2d_7">
        <path
           clip-path="url(#p7f36d6a066)"
           d="M 45.995455 195.311992  L 123.918672 195.311992  L 123.918672 193.598254  L 124.986113 193.598254  L 124.986113 193.407836  L 126.053554 193.407836  L 126.053554 193.196256  L 127.120996 193.196256  L 127.120996 192.961172  L 128.188437 192.961172  L 128.188437 192.699963  L 129.255878 192.699963  L 129.255878 192.409749  L 130.32332 192.409749  L 130.32332 192.087266  L 131.390761 192.087266  L 131.390761 191.728967  L 132.458202 191.728967  L 132.458202 191.330858  L 133.525644 191.330858  L 133.525644 190.888513  L 134.593085 190.888513  L 134.593085 190.39701  L 135.660526 190.39701  L 135.660526 189.850915  L 136.727968 189.850915  L 136.727968 189.244126  L 137.795409 189.244126  L 137.795409 188.569919  L 138.86285 188.569919  L 138.86285 187.820795  L 139.930292 187.820795  L 139.930292 186.98844  L 140.997733 186.98844  L 140.997733 186.063594  L 142.065174 186.063594  L 142.065174 185.035987  L 143.132616 185.035987  L 143.132616 183.894211  L 144.200057 183.894211  L 144.200057 182.625568  L 145.267498 182.625568  L 145.267498 181.215966  L 146.33494 181.215966  L 146.33494 179.64974  L 147.402381 179.64974  L 147.402381 177.90949  L 148.469822 177.90949  L 148.469822 175.975879  L 149.537264 175.975879  L 149.537264 173.827422  L 150.604705 173.827422  L 150.604705 195.311992  L 326.732524 195.311992  L 326.732524 192.087266  L 327.799966 192.087266  L 327.799966 191.728967  L 328.867407 191.728967  L 328.867407 191.330858  L 329.934848 191.330858  L 329.934848 190.888513  L 331.00229 190.888513  L 331.00229 190.39701  L 332.069731 190.39701  L 332.069731 189.850915  L 333.137172 189.850915  L 333.137172 189.244126  L 334.204614 189.244126  L 334.204614 188.569919  L 335.272055 188.569919  L 335.272055 187.820795  L 336.339496 187.820795  L 336.339496 186.98844  L 337.406938 186.98844  L 337.406938 186.063594  L 338.474379 186.063594  L 338.474379 185.035987  L 339.54182 185.035987  L 339.54182 183.894211  L 340.609262 183.894211  L 340.609262 182.625568  L 341.676703 182.625568  L 341.676703 181.215966  L 342.744144 181.215966  L 342.744144 179.64974  L 343.811586 179.64974  L 343.811586 177.90949  L 344.879027 177.90949  L 344.879027 175.975879  L 345.946468 175.975879  L 345.946468 173.827422  L 347.01391 173.827422  L 347.01391 195.311992  L 450.555719 195.311992  L 450.555719 193.407836  L 451.62316 193.407836  L 451.62316 193.196256  L 452.690602 193.196256  L 452.690602 192.961172  L 453.758043 192.961172  L 453.758043 192.699963  L 454.825484 192.699963  L 454.825484 192.409749  L 455.892925 192.409749  L 455.892925 192.087266  L 456.960367 192.087266  L 456.960367 191.728967  L 458.027808 191.728967  L 458.027808 191.330858  L 459.095249 191.330858  L 459.095249 190.888513  L 460.162691 190.888513  L 460.162691 190.39701  L 461.230132 190.39701  L 461.230132 189.850915  L 462.297573 189.850915  L 462.297573 189.244126  L 463.365015 189.244126  L 463.365015 188.569919  L 464.432456 188.569919  L 464.432456 187.820795  L 465.499897 187.820795  L 465.499897 186.98844  L 466.567339 186.98844  L 466.567339 186.063594  L 467.63478 186.063594  L 467.63478 185.035987  L 468.702221 185.035987  L 468.702221 183.894211  L 469.769663 183.894211  L 469.769663 182.625568  L 470.837104 182.625568  L 470.837104 181.215966  L 471.904545 181.215966  L 471.904545 181.215966  "
           style="fill:none;stroke:#000000;stroke-linecap:round;stroke-opacity:0.2;stroke-width:2;"
           id="path860" />
      </g>
      <g
         id="line2d_8">
        <path
           clip-path="url(#p7f36d6a066)"
           d="M 45.995455 194.836968  L 45.995455 194.989466  L 47.062896 194.989466  L 47.062896 195.394343  L 48.130337 195.394343  L 48.130337 195.658925  L 49.197779 195.658925  L 49.197779 195.830286  L 50.26522 195.830286  L 50.26522 195.514463  L 51.332661 195.514463  L 51.332661 195.695986  L 52.400103 195.695986  L 52.400103 195.906191  L 54.534985 195.854241  L 54.534985 195.651255  L 55.602427 195.651255  L 55.602427 195.425409  L 56.669868 195.425409  L 56.669868 195.664855  L 57.737309 195.664855  L 57.737309 195.070162  L 58.804751 195.070162  L 58.804751 194.70617  L 59.872192 194.70617  L 59.872192 194.539085  L 62.007075 194.614281  L 62.007075 194.818663  L 64.141957 194.818406  L 64.141957 195.189143  L 65.209398 195.189143  L 65.209398 195.052222  L 68.411722 195.037226  L 68.411722 195.243263  L 69.479164 195.243263  L 69.479164 195.020038  L 70.546605 195.020038  L 70.546605 195.210929  L 71.614046 195.210929  L 71.614046 195.373911  L 72.681488 195.373911  L 72.681488 195.510832  L 73.748929 195.510832  L 73.748929 195.647538  L 79.086136 195.63787  L 79.086136 195.536055  L 80.153577 195.536055  L 80.153577 195.231339  L 81.221018 195.231339  L 81.221018 195.034046  L 83.355901 194.952749  L 83.355901 194.859699  L 86.558225 194.769657  L 86.558225 195.061547  L 89.760549 195.165231  L 89.760549 195.330147  L 90.82799 195.330147  L 90.82799 195.191163  L 99.367521 195.146969  L 99.367521 195.030716  L 100.434962 195.030716  L 100.434962 194.907803  L 101.502404 194.907803  L 101.502404 194.793849  L 103.637286 194.697469  L 103.637286 194.595697  L 104.704728 194.595697  L 104.704728 194.441674  L 107.907052 194.527505  L 107.907052 194.768862  L 112.176817 194.838945  L 112.176817 194.894697  L 119.648906 194.914141  L 119.648906 194.743704  L 120.716348 194.743704  L 120.716348 194.911885  L 123.918672 194.904838  L 123.918672 191.262  L 124.986113 191.262  L 124.986113 190.830698  L 126.053554 190.830698  L 126.053554 192.733393  L 127.120996 192.733393  L 127.120996 192.847497  L 128.188437 192.847497  L 128.188437 192.212585  L 129.255878 192.212585  L 129.255878 191.510426  L 130.32332 191.510426  L 130.32332 190.923124  L 131.390761 190.923124  L 131.390761 190.302779  L 132.458202 190.302779  L 132.458202 189.763494  L 133.525644 189.763494  L 133.525644 188.454246  L 134.593085 188.454246  L 134.593085 187.655257  L 135.660526 187.655257  L 135.660526 186.638456  L 136.727968 186.638456  L 136.727968 185.614845  L 137.795409 185.614845  L 137.795409 184.452487  L 138.86285 184.452487  L 138.86285 183.043121  L 139.930292 183.043121  L 139.930292 181.70098  L 140.997733 181.70098  L 140.997733 180.408597  L 142.065174 180.408597  L 142.065174 179.159785  L 143.132616 179.159785  L 143.132616 178.215645  L 144.200057 178.215645  L 144.200057 177.757766  L 145.267498 177.757766  L 145.267498 177.630169  L 149.537264 177.680658  L 149.537264 177.976801  L 150.604705 177.976801  L 150.604705 194.642662  L 151.672146 194.642662  L 151.672146 195.525291  L 152.739588 195.525291  L 152.739588 194.276823  L 153.807029 194.276823  L 153.807029 194.636088  L 154.87447 194.636088  L 154.87447 194.818814  L 155.941912 194.818814  L 155.941912 195.335088  L 157.009353 195.335088  L 157.009353 195.534057  L 160.211677 195.621886  L 160.211677 195.684685  L 161.279118 195.684685  L 161.279118 195.80517  L 162.34656 195.80517  L 162.34656 195.97101  L 163.414001 195.97101  L 163.414001 196.207662  L 165.548884 196.254348  L 165.548884 196.676048  L 167.683766 196.63426  L 167.683766 196.456153  L 168.751208 196.456153  L 168.751208 196.283696  L 171.953532 196.18201  L 171.953532 196.145594  L 174.088414 196.078239  L 174.088414 195.987575  L 176.223297 195.894267  L 176.223297 195.819823  L 182.627945 195.71384  L 182.627945 195.590883  L 183.695386 195.590883  L 183.695386 195.350664  L 198.639565 195.251212  L 198.639565 195.179755  L 199.707006 195.179755  L 199.707006 194.893838  L 200.774447 194.893838  L 200.774447 195.270334  L 203.976771 195.352727  L 203.976771 195.453017  L 205.044213 195.453017  L 205.044213 195.304559  L 206.111654 195.304559  L 206.111654 195.081892  L 207.179095 195.081892  L 207.179095 194.673836  L 211.448861 194.746153  L 211.448861 194.802378  L 212.516302 194.802378  L 212.516302 194.965639  L 213.583743 194.965639  L 213.583743 194.853211  L 219.988391 194.790712  L 219.988391 194.738805  L 227.460481 194.721875  L 227.460481 193.209985  L 228.527922 193.209985  L 228.527922 195.786436  L 229.595363 195.786436  L 229.595363 196.023239  L 230.662805 196.023239  L 230.662805 195.047925  L 231.730246 195.047925  L 231.730246 194.413808  L 233.865129 194.445047  L 233.865129 194.757905  L 234.93257 194.757905  L 234.93257 195.239417  L 236.000011 195.239417  L 236.000011 194.711004  L 237.067453 194.711004  L 237.067453 194.882193  L 241.337218 194.940932  L 241.337218 195.004849  L 242.404659 195.004849  L 242.404659 195.116139  L 243.472101 195.116139  L 243.472101 195.241029  L 244.539542 195.241029  L 244.539542 195.355799  L 246.674425 195.450181  L 246.674425 195.520521  L 249.876749 195.585083  L 249.876749 195.667433  L 250.94419 195.667433  L 250.94419 195.477509  L 254.146514 195.413163  L 254.146514 195.651964  L 255.213955 195.651964  L 255.213955 195.434648  L 258.416279 195.462341  L 258.416279 195.29431  L 259.483721 195.29431  L 259.483721 194.426119  L 260.551162 194.426119  L 260.551162 194.669174  L 261.618603 194.669174  L 261.618603 193.701036  L 262.686045 193.701036  L 262.686045 194.159452  L 263.753486 194.159452  L 263.753486 194.42483  L 265.888369 194.467777  L 265.888369 194.578939  L 268.023251 194.688488  L 268.023251 194.793312  L 269.090693 194.793312  L 269.090693 194.907094  L 271.225575 194.996126  L 271.225575 195.040341  L 273.360458 195.077982  L 273.360458 194.805429  L 274.427899 194.805429  L 274.427899 194.982655  L 275.495341 194.982655  L 275.495341 195.137129  L 276.562782 195.137129  L 276.562782 194.986028  L 278.697665 194.924196  L 278.697665 195.119254  L 284.034871 195.139858  L 284.034871 194.901057  L 285.102313 194.901057  L 285.102313 195.288553  L 292.574402 195.201626  L 292.574402 195.143553  L 295.776726 195.148774  L 295.776726 194.960462  L 296.844167 194.960462  L 296.844167 195.165897  L 302.181374 195.162653  L 302.181374 194.816751  L 303.248815 194.816751  L 303.248815 194.350815  L 304.316257 194.350815  L 304.316257 194.67824  L 305.383698 194.67824  L 305.383698 194.8299  L 307.518581 194.772235  L 307.518581 194.284192  L 308.586022 194.284192  L 308.586022 194.421177  L 309.653463 194.421177  L 309.653463 194.63598  L 310.720905 194.63598  L 310.720905 194.858947  L 312.855787 194.831232  L 312.855787 195.030974  L 314.99067 194.926151  L 314.99067 195.211724  L 316.058111 195.211724  L 316.058111 195.398704  L 317.125553 195.398704  L 317.125553 195.250417  L 318.192994 195.250417  L 318.192994 195.561471  L 319.260435 195.561471  L 319.260435 195.702646  L 321.395318 195.795782  L 321.395318 195.26406  L 322.462759 195.26406  L 322.462759 195.55219  L 323.530201 195.55219  L 323.530201 194.7914  L 325.665083 194.851277  L 325.665083 194.970602  L 326.732524 194.970602  L 326.732524 193.647948  L 327.799966 193.647948  L 327.799966 192.106151  L 328.867407 192.106151  L 328.867407 192.955371  L 329.934848 192.955371  L 329.934848 193.103443  L 332.069731 193.190563  L 332.069731 193.487286  L 333.137172 193.487286  L 333.137172 193.643372  L 334.204614 193.643372  L 334.204614 193.895901  L 335.272055 193.895901  L 335.272055 192.31627  L 336.339496 192.31627  L 336.339496 192.75058  L 337.406938 192.75058  L 337.406938 191.710555  L 338.474379 191.710555  L 338.474379 190.193465  L 339.54182 190.193465  L 339.54182 189.757823  L 340.609262 189.757823  L 340.609262 188.868469  L 341.676703 188.868469  L 341.676703 187.206336  L 342.744144 187.206336  L 342.744144 186.303963  L 343.811586 186.303963  L 343.811586 185.634504  L 344.879027 185.634504  L 344.879027 184.534021  L 345.946468 184.534021  L 345.946468 184.189946  L 347.01391 184.189946  L 347.01391 194.978466  L 348.081351 194.978466  L 348.081351 195.483804  L 349.148792 195.483804  L 349.148792 195.302711  L 351.283675 195.299467  L 351.283675 195.051599  L 352.351116 195.051599  L 352.351116 194.804763  L 353.418558 194.804763  L 353.418558 194.451256  L 354.485999 194.451256  L 354.485999 194.050569  L 355.55344 194.050569  L 355.55344 193.728794  L 356.620882 193.728794  L 356.620882 193.551998  L 357.688323 193.551998  L 357.688323 193.98547  L 358.755764 193.98547  L 358.755764 193.542931  L 359.823206 193.542931  L 359.823206 193.897534  L 360.890647 193.897534  L 360.890647 194.222853  L 361.958088 194.222853  L 361.958088 194.808587  L 364.092971 194.716676  L 364.092971 195.680281  L 365.160412 195.680281  L 365.160412 195.827386  L 366.227854 195.827386  L 366.227854 195.613335  L 367.295295 195.613335  L 367.295295 195.265306  L 368.362736 195.265306  L 368.362736 195.038042  L 374.767384 195.046421  L 374.767384 194.846636  L 375.834826 194.846636  L 375.834826 194.998124  L 379.03715 195.048076  L 379.03715 195.182462  L 383.306915 195.200144  L 383.306915 195.413142  L 384.374356 195.413142  L 384.374356 195.202335  L 387.57668 195.09676  L 387.57668 195.030201  L 390.779004 195.082623  L 390.779004 195.179561  L 392.913887 195.260365  L 392.913887 195.304559  L 398.251094 195.197909  L 398.251094 195.138719  L 400.385976 195.078519  L 400.385976 195.020103  L 403.5883 194.913776  L 403.5883 194.866982  L 406.790624 194.786544  L 406.790624 194.752427  L 412.127831 194.648162  L 412.127831 194.628976  L 416.397596 194.585406  L 416.397596 194.512917  L 419.59992 194.558099  L 419.59992 194.271817  L 420.667362 194.271817  L 420.667362 194.157669  L 421.734803 194.157669  L 421.734803 194.400767  L 422.802244 194.400767  L 422.802244 194.621822  L 423.869686 194.621822  L 423.869686 194.767251  L 424.937127 194.767251  L 424.937127 194.882  L 432.409216 194.793913  L 432.409216 194.768476  L 437.746423 194.789036  L 437.746423 194.95696  L 439.881306 194.881914  L 439.881306 194.262471  L 440.948747 194.262471  L 440.948747 193.733779  L 442.016188 193.733779  L 442.016188 194.100219  L 444.151071 194.053469  L 444.151071 193.490573  L 445.218512 193.490573  L 445.218512 193.776254  L 446.285954 193.776254  L 446.285954 194.06318  L 447.353395 194.06318  L 447.353395 194.359667  L 448.420836 194.359667  L 448.420836 194.691733  L 449.488278 194.691733  L 449.488278 194.987532  L 450.555719 194.987532  L 450.555719 192.429429  L 451.62316 192.429429  L 451.62316 191.567511  L 452.690602 191.567511  L 452.690602 192.058949  L 453.758043 192.058949  L 453.758043 191.935026  L 454.825484 191.935026  L 454.825484 191.198814  L 455.892925 191.198814  L 455.892925 190.849475  L 456.960367 190.849475  L 456.960367 190.421739  L 458.027808 190.421739  L 458.027808 189.876718  L 459.095249 189.876718  L 459.095249 188.667072  L 460.162691 188.667072  L 460.162691 188.535415  L 461.230132 188.535415  L 461.230132 186.710043  L 462.297573 186.710043  L 462.297573 185.616629  L 463.365015 185.616629  L 463.365015 184.6932  L 464.432456 184.6932  L 464.432456 183.667806  L 465.499897 183.667806  L 465.499897 182.737804  L 466.567339 182.737804  L 466.567339 181.920273  L 467.63478 181.920273  L 467.63478 181.194159  L 468.702221 181.194159  L 468.702221 180.509918  L 469.769663 180.509918  L 469.769663 179.857045  L 470.837104 179.857045  L 470.837104 179.300938  L 471.904545 179.300938  L 471.904545 179.300938  "
           style="fill:none;stroke:#984ea3;stroke-linecap:round;stroke-width:2;"
           id="path863" />
      </g>
      <g
         id="patch_18">
        <path
           d="M 24.7 197.460449  L 24.7 171.678965  "
           style="fill:none;stroke:#000000;stroke-linecap:square;stroke-linejoin:miter;stroke-width:1.25;"
           id="path866" />
      </g>
      <g
         id="patch_19">
        <path
           d="M 493.2 197.460449  L 493.2 171.678965  "
           style="fill:none;stroke:#000000;stroke-linecap:square;stroke-linejoin:miter;stroke-width:1.25;"
           id="path869" />
      </g>
      <g
         id="patch_20">
        <path
           d="M 24.7 197.460449  L 493.2 197.460449  "
           style="fill:none;stroke:#000000;stroke-linecap:square;stroke-linejoin:miter;stroke-width:1.25;"
           id="path872" />
      </g>
      <g
         id="patch_21">
        <path
           d="M 24.7 171.678965  L 493.2 171.678965  "
           style="fill:none;stroke:#000000;stroke-linecap:square;stroke-linejoin:miter;stroke-width:1.25;"
           id="path875" />
      </g>
      <g
         id="matplotlib.axis_7">
        <g
           id="xtick_28" />
        <g
           id="xtick_29" />
        <g
           id="xtick_30" />
        <g
           id="xtick_31" />
        <g
           id="xtick_32" />
        <g
           id="xtick_33" />
        <g
           id="xtick_34" />
        <g
           id="xtick_35" />
        <g
           id="xtick_36" />
      </g>
      <g
         id="matplotlib.axis_8">
        <g
           id="ytick_7">
          <g
             id="text_7">
            <!-- 0 -->
            <g
               transform="translate(7.2 200.775742)scale(0.16 -0.16)"
               id="g890">
              <use
                 xlink:href="#STIXGeneral-Regular-30"
                 id="use888" />
            </g>
          </g>
        </g>
        <g
           id="ytick_8">
          <g
             id="text_8">
            <!-- 1 -->
            <g
               transform="translate(7.2 179.291172)scale(0.16 -0.16)"
               id="g896">
              <use
                 xlink:href="#STIXGeneral-Regular-31"
                 id="use894" />
            </g>
          </g>
        </g>
      </g>
    </g>
    <g
       id="axes_5">
      <g
         id="patch_22">
        <path
           d="M 24.7 251.181673  L 493.2 251.181673  L 493.2 225.400189  L 24.7 225.400189  z "
           style="fill:none;"
           id="path902" />
      </g>
      <g
         id="line2d_9">
        <path
           clip-path="url(#p3aca4b513c)"
           d="M 45.995455 249.033216  L 69.479164 249.033216  L 69.479164 245.80849  L 70.546605 245.80849  L 70.546605 245.450191  L 71.614046 245.450191  L 71.614046 245.052082  L 72.681488 245.052082  L 72.681488 244.609736  L 73.748929 244.609736  L 73.748929 244.118234  L 74.81637 244.118234  L 74.81637 243.572139  L 75.883812 243.572139  L 75.883812 242.96535  L 76.951253 242.96535  L 76.951253 242.291143  L 78.018694 242.291143  L 78.018694 241.542019  L 79.086136 241.542019  L 79.086136 240.709664  L 80.153577 240.709664  L 80.153577 239.784818  L 81.221018 239.784818  L 81.221018 238.757211  L 82.28846 238.757211  L 82.28846 237.615435  L 83.355901 237.615435  L 83.355901 236.346792  L 84.423342 236.346792  L 84.423342 234.93719  L 85.490784 234.93719  L 85.490784 233.370964  L 86.558225 233.370964  L 86.558225 231.630714  L 87.625666 231.630714  L 87.625666 229.697103  L 88.693108 229.697103  L 88.693108 227.548646  L 89.760549 227.548646  L 89.760549 249.033216  L 191.167476 249.033216  L 191.167476 245.80849  L 192.234917 245.80849  L 192.234917 245.450191  L 193.302358 245.450191  L 193.302358 245.052082  L 194.369799 245.052082  L 194.369799 244.609736  L 195.437241 244.609736  L 195.437241 244.118234  L 196.504682 244.118234  L 196.504682 243.572139  L 197.572123 243.572139  L 197.572123 242.96535  L 198.639565 242.96535  L 198.639565 242.291143  L 199.707006 242.291143  L 199.707006 241.542019  L 200.774447 241.542019  L 200.774447 240.709664  L 201.841889 240.709664  L 201.841889 239.784818  L 202.90933 239.784818  L 202.90933 238.757211  L 203.976771 238.757211  L 203.976771 237.615435  L 205.044213 237.615435  L 205.044213 236.346792  L 206.111654 236.346792  L 206.111654 234.93719  L 207.179095 234.93719  L 207.179095 233.370964  L 208.246537 233.370964  L 208.246537 231.630714  L 209.313978 231.630714  L 209.313978 229.697103  L 210.381419 229.697103  L 210.381419 227.548646  L 211.448861 227.548646  L 211.448861 249.033216  L 316.058111 249.033216  L 316.058111 246.682396  L 317.125553 246.682396  L 317.125553 246.421187  L 318.192994 246.421187  L 318.192994 246.130973  L 319.260435 246.130973  L 319.260435 245.80849  L 320.327877 245.80849  L 320.327877 245.450191  L 321.395318 245.450191  L 321.395318 245.052082  L 322.462759 245.052082  L 322.462759 244.609736  L 323.530201 244.609736  L 323.530201 244.118234  L 324.597642 244.118234  L 324.597642 243.572139  L 325.665083 243.572139  L 325.665083 242.96535  L 326.732524 242.96535  L 326.732524 242.291143  L 327.799966 242.291143  L 327.799966 241.542019  L 328.867407 241.542019  L 328.867407 240.709664  L 329.934848 240.709664  L 329.934848 239.784818  L 331.00229 239.784818  L 331.00229 238.757211  L 332.069731 238.757211  L 332.069731 237.615435  L 333.137172 237.615435  L 333.137172 236.346792  L 334.204614 236.346792  L 334.204614 234.93719  L 335.272055 234.93719  L 335.272055 233.370964  L 336.339496 233.370964  L 336.339496 231.630714  L 337.406938 231.630714  L 337.406938 229.697103  L 338.474379 229.697103  L 338.474379 227.548646  L 339.54182 227.548646  L 339.54182 249.033216  L 471.904545 249.033216  L 471.904545 249.033216  "
           style="fill:none;stroke:#000000;stroke-linecap:round;stroke-opacity:0.2;stroke-width:2;"
           id="path905" />
      </g>
      <g
         id="line2d_10">
        <path
           clip-path="url(#p3aca4b513c)"
           d="M 45.995455 249.436868  L 45.995455 249.371512  L 48.130337 249.277238  L 48.130337 249.209798  L 49.197779 249.209798  L 49.197779 248.559761  L 51.332661 248.534796  L 51.332661 248.148546  L 52.400103 248.148546  L 52.400103 247.96829  L 54.534985 247.992267  L 54.534985 248.196048  L 55.602427 248.196048  L 55.602427 248.584919  L 56.669868 248.584919  L 56.669868 248.780429  L 57.737309 248.780429  L 57.737309 248.943368  L 60.939633 248.986015  L 60.939633 249.264519  L 62.007075 249.264519  L 62.007075 249.633495  L 63.074516 249.633495  L 63.074516 249.271867  L 64.141957 249.271867  L 64.141957 248.934323  L 65.209398 248.934323  L 65.209398 248.757225  L 66.27684 248.757225  L 66.27684 248.873887  L 67.344281 248.873887  L 67.344281 248.993942  L 69.479164 249.083683  L 69.479164 244.636377  L 70.546605 244.636377  L 70.546605 242.718213  L 71.614046 242.718213  L 71.614046 242.324057  L 72.681488 242.324057  L 72.681488 242.609824  L 73.748929 242.609824  L 73.748929 242.312606  L 74.81637 242.312606  L 74.81637 241.864159  L 75.883812 241.864159  L 75.883812 241.296472  L 76.951253 241.296472  L 76.951253 240.707709  L 78.018694 240.707709  L 78.018694 240.034597  L 79.086136 240.034597  L 79.086136 239.305755  L 80.153577 239.305755  L 80.153577 238.601942  L 81.221018 238.601942  L 81.221018 237.94316  L 82.28846 237.94316  L 82.28846 237.294734  L 83.355901 237.294734  L 83.355901 236.622826  L 84.423342 236.622826  L 84.423342 235.918991  L 85.490784 235.918991  L 85.490784 235.085412  L 86.558225 235.085412  L 86.558225 234.160501  L 87.625666 234.160501  L 87.625666 233.604287  L 88.693108 233.604287  L 88.693108 233.186971  L 89.760549 233.186971  L 89.760549 249.276787  L 90.82799 249.276787  L 90.82799 249.160276  L 91.895432 249.160276  L 91.895432 248.774778  L 92.962873 248.774778  L 92.962873 249.599614  L 94.030314 249.599614  L 94.030314 249.433903  L 95.097756 249.433903  L 95.097756 249.170524  L 96.165197 249.170524  L 96.165197 249.660759  L 97.232638 249.660759  L 97.232638 249.849716  L 99.367521 249.823805  L 99.367521 249.726437  L 102.569845 249.629929  L 102.569845 249.609841  L 104.704728 249.59609  L 104.704728 249.157827  L 105.772169 249.157827  L 105.772169 248.739458  L 106.83961 248.739458  L 106.83961 248.45165  L 107.907052 248.45165  L 107.907052 248.123559  L 108.974493 248.123559  L 108.974493 248.339307  L 110.041934 248.339307  L 110.041934 248.038115  L 111.109376 248.038115  L 111.109376 248.167001  L 114.3117 248.198648  L 114.3117 248.055045  L 115.379141 248.055045  L 115.379141 248.246816  L 116.446582 248.246816  L 116.446582 248.522721  L 121.783789 248.437836  L 121.783789 248.316469  L 124.986113 248.375638  L 124.986113 248.719799  L 126.053554 248.719799  L 126.053554 248.584103  L 137.795409 248.65165  L 137.795409 248.983544  L 143.132616 248.903707  L 143.132616 248.841789  L 148.469822 248.951424  L 148.469822 249.036546  L 149.537264 249.036546  L 149.537264 249.169858  L 150.604705 249.169858  L 150.604705 249.40578  L 151.672146 249.40578  L 151.672146 249.529531  L 152.739588 249.529531  L 152.739588 249.033367  L 153.807029 249.033367  L 153.807029 248.908735  L 154.87447 248.908735  L 154.87447 248.781073  L 160.211677 248.879859  L 160.211677 248.951833  L 167.683766 248.867935  L 167.683766 249.108068  L 169.818649 249.121733  L 169.818649 249.244538  L 170.88609 249.244538  L 170.88609 248.827308  L 174.088414 248.872361  L 174.088414 248.982147  L 175.155856 248.982147  L 175.155856 249.208981  L 176.223297 249.208981  L 176.223297 249.071394  L 177.290738 249.071394  L 177.290738 248.949749  L 179.425621 248.925278  L 179.425621 248.78421  L 180.493062 248.78421  L 180.493062 248.586316  L 182.627945 248.564101  L 182.627945 248.829628  L 183.695386 248.829628  L 183.695386 248.580364  L 184.762828 248.580364  L 184.762828 248.694985  L 186.89771 248.595704  L 186.89771 248.98088  L 187.965152 248.98088  L 187.965152 249.138125  L 191.167476 249.101967  L 191.167476 245.243209  L 192.234917 245.243209  L 192.234917 244.790572  L 193.302358 244.790572  L 193.302358 244.462782  L 194.369799 244.462782  L 194.369799 243.642609  L 195.437241 243.642609  L 195.437241 243.234445  L 196.504682 243.234445  L 196.504682 242.765866  L 197.572123 242.765866  L 197.572123 242.181873  L 198.639565 242.181873  L 198.639565 241.373408  L 199.707006 241.373408  L 199.707006 240.179597  L 200.774447 240.179597  L 200.774447 239.294905  L 201.841889 239.294905  L 201.841889 238.290136  L 203.976771 238.276493  L 203.976771 236.121118  L 205.044213 236.121118  L 205.044213 235.183575  L 206.111654 235.183575  L 206.111654 234.665646  L 207.179095 234.665646  L 207.179095 234.2123  L 208.246537 234.2123  L 208.246537 233.631723  L 209.313978 233.631723  L 209.313978 232.826073  L 210.381419 232.826073  L 210.381419 231.868226  L 211.448861 231.868226  L 211.448861 247.947902  L 212.516302 247.947902  L 212.516302 249.180858  L 214.651185 249.075261  L 214.651185 248.990054  L 215.718626 248.990054  L 215.718626 248.614847  L 216.786067 248.614847  L 216.786067 248.953036  L 217.853509 248.953036  L 217.853509 249.26164  L 219.988391 249.229134  L 219.988391 249.092578  L 223.190715 249.061898  L 223.190715 248.830316  L 224.258157 248.830316  L 224.258157 248.716147  L 231.730246 248.682395  L 231.730246 248.543132  L 233.865129 248.502633  L 233.865129 248.338147  L 237.067453 248.429027  L 237.067453 248.457945  L 244.539542 248.458461  L 244.539542 248.696231  L 246.674425 248.63616  L 246.674425 248.55252  L 248.809307 248.443465  L 248.809307 248.293266  L 250.94419 248.213537  L 250.94419 248.456162  L 252.011631 248.456162  L 252.011631 248.321733  L 254.146514 248.415664  L 254.146514 248.442412  L 255.213955 248.442412  L 255.213955 248.749835  L 258.416279 248.850812  L 258.416279 249.147858  L 259.483721 249.147858  L 259.483721 248.884092  L 261.618603 248.846365  L 261.618603 248.535311  L 263.753486 248.613751  L 263.753486 248.363069  L 266.95581 248.463402  L 266.95581 248.599378  L 268.023251 248.599378  L 268.023251 248.738749  L 270.158134 248.849244  L 270.158134 248.919842  L 275.495341 248.856097  L 275.495341 248.771061  L 278.697665 248.861877  L 278.697665 248.969257  L 279.765106 248.969257  L 279.765106 248.282502  L 280.832547 248.282502  L 280.832547 247.741327  L 281.899989 247.741327  L 281.899989 247.918102  L 282.96743 247.918102  L 282.96743 248.089356  L 284.034871 248.089356  L 284.034871 248.277196  L 285.102313 248.277196  L 285.102313 248.437685  L 286.169754 248.437685  L 286.169754 248.552456  L 288.304637 248.636224  L 288.304637 248.708155  L 290.439519 248.776776  L 290.439519 248.841423  L 292.574402 248.908262  L 292.574402 249.245806  L 296.844167 249.193427  L 296.844167 249.07524  L 297.911609 249.07524  L 297.911609 248.87726  L 298.97905 248.87726  L 298.97905 248.698551  L 300.046491 248.698551  L 300.046491 248.548116  L 303.248815 248.638759  L 303.248815 248.808445  L 304.316257 248.808445  L 304.316257 248.956838  L 305.383698 248.956838  L 305.383698 249.218972  L 307.518581 249.207284  L 307.518581 249.016501  L 308.586022 249.016501  L 308.586022 248.836052  L 316.058111 248.926996  L 316.058111 245.09763  L 317.125553 245.09763  L 317.125553 244.655434  L 318.192994 244.655434  L 318.192994 243.765242  L 319.260435 243.765242  L 319.260435 243.558389  L 320.327877 243.558389  L 320.327877 242.439709  L 321.395318 242.439709  L 321.395318 241.784558  L 322.462759 241.784558  L 322.462759 241.359851  L 323.530201 241.359851  L 323.530201 240.78211  L 324.597642 240.78211  L 324.597642 239.943374  L 325.665083 239.943374  L 325.665083 238.506206  L 326.732524 238.506206  L 326.732524 238.2106  L 327.799966 238.2106  L 327.799966 237.535576  L 328.867407 237.535576  L 328.867407 236.687237  L 329.934848 236.687237  L 329.934848 235.643688  L 332.069731 235.618723  L 332.069731 234.575218  L 333.137172 234.575218  L 333.137172 233.197369  L 334.204614 233.197369  L 334.204614 231.79462  L 335.272055 231.79462  L 335.272055 230.723335  L 336.339496 230.723335  L 336.339496 230.100798  L 337.406938 230.100798  L 337.406938 229.8632  L 339.54182 229.886983  L 339.54182 247.306265  L 340.609262 247.306265  L 340.609262 248.45382  L 341.676703 248.45382  L 341.676703 248.271588  L 342.744144 248.271588  L 342.744144 248.001183  L 343.811586 248.001183  L 343.811586 247.592375  L 344.879027 247.592375  L 344.879027 248.28811  L 345.946468 248.28811  L 345.946468 249.108477  L 347.01391 249.108477  L 347.01391 249.476722  L 348.081351 249.476722  L 348.081351 249.713504  L 349.148792 249.713504  L 349.148792 249.366206  L 350.216234 249.366206  L 350.216234 249.724203  L 351.283675 249.724203  L 351.283675 249.463273  L 352.351116 249.463273  L 352.351116 249.662091  L 355.55344 249.663638  L 355.55344 249.392245  L 357.688323 249.486712  L 357.688323 250.572736  L 358.755764 250.572736  L 358.755764 249.235193  L 359.823206 249.235193  L 359.823206 248.963864  L 361.958088 248.866539  L 361.958088 248.791192  L 363.02553 248.791192  L 363.02553 248.624837  L 364.092971 248.624837  L 364.092971 248.421615  L 365.160412 248.421615  L 365.160412 248.296338  L 368.362736 248.397703  L 368.362736 248.553208  L 369.430178 248.553208  L 369.430178 248.719455  L 370.497619 248.719455  L 370.497619 248.868709  L 371.56506 248.868709  L 371.56506 248.98797  L 376.902267 248.883619  L 376.902267 248.834634  L 379.03715 248.909873  L 379.03715 249.046687  L 380.104591 249.046687  L 380.104591 249.289205  L 381.172032 249.289205  L 381.172032 248.943217  L 384.374356 248.923795  L 384.374356 248.763864  L 385.441798 248.763864  L 385.441798 248.590376  L 386.509239 248.590376  L 386.509239 248.818564  L 387.57668 248.818564  L 387.57668 249.110238  L 391.846446 249.036224  L 391.846446 248.9887  L 395.04877 249.06033  L 395.04877 249.137502  L 397.183652 249.212226  L 397.183652 249.270986  L 402.520859 249.308648  L 402.520859 249.549276  L 405.723183 249.534344  L 405.723183 249.366184  L 406.790624 249.366184  L 406.790624 249.115244  L 408.925507 249.112537  L 408.925507 248.800753  L 411.06039 248.832615  L 411.06039 248.939243  L 413.195272 249.024343  L 413.195272 249.066711  L 416.397596 249.007735  L 416.397596 248.791622  L 417.465038 248.791622  L 417.465038 248.481492  L 418.532479 248.481492  L 418.532479 247.286392  L 419.59992 247.286392  L 419.59992 247.408381  L 420.667362 247.408381  L 420.667362 248.525192  L 421.734803 248.525192  L 421.734803 249.494361  L 422.802244 249.494361  L 422.802244 249.975465  L 424.937127 249.99102  L 424.937127 249.623247  L 426.004568 249.623247  L 426.004568 249.308068  L 427.07201 249.308068  L 427.07201 248.890559  L 428.139451 248.890559  L 428.139451 248.526932  L 429.206892 248.526932  L 429.206892 248.211539  L 430.274334 248.211539  L 430.274334 247.920358  L 431.341775 247.920358  L 431.341775 247.683534  L 432.409216 247.683534  L 432.409216 247.546183  L 435.61154 247.644153  L 435.61154 247.838223  L 436.678982 247.838223  L 436.678982 248.074704  L 437.746423 248.074704  L 437.746423 248.316684  L 438.813864 248.316684  L 438.813864 248.539522  L 439.881306 248.539522  L 439.881306 248.730799  L 440.948747 248.730799  L 440.948747 248.886885  L 442.016188 248.886885  L 442.016188 249.009497  L 446.285954 249.02965  L 446.285954 249.120637  L 448.420836 249.210421  L 448.420836 249.245247  L 462.297573 249.146805  L 462.297573 249.127963  L 465.499897 249.22039  L 465.499897 249.481341  L 466.567339 249.481341  L 466.567339 249.802901  L 467.63478 249.802901  L 467.63478 249.51909  L 468.702221 249.51909  L 468.702221 249.317307  L 469.769663 249.317307  L 469.769663 249.203696  L 471.904545 249.285617  L 471.904545 249.285617  "
           style="fill:none;stroke:#ff7f00;stroke-linecap:round;stroke-width:2;"
           id="path908" />
      </g>
      <g
         id="patch_23">
        <path
           d="M 24.7 251.181673  L 24.7 225.400189  "
           style="fill:none;stroke:#000000;stroke-linecap:square;stroke-linejoin:miter;stroke-width:1.25;"
           id="path911" />
      </g>
      <g
         id="patch_24">
        <path
           d="M 493.2 251.181673  L 493.2 225.400189  "
           style="fill:none;stroke:#000000;stroke-linecap:square;stroke-linejoin:miter;stroke-width:1.25;"
           id="path914" />
      </g>
      <g
         id="patch_25">
        <path
           d="M 24.7 251.181673  L 493.2 251.181673  "
           style="fill:none;stroke:#000000;stroke-linecap:square;stroke-linejoin:miter;stroke-width:1.25;"
           id="path917" />
      </g>
      <g
         id="patch_26">
        <path
           d="M 24.7 225.400189  L 493.2 225.400189  "
           style="fill:none;stroke:#000000;stroke-linecap:square;stroke-linejoin:miter;stroke-width:1.25;"
           id="path920" />
      </g>
      <g
         id="matplotlib.axis_9">
        <g
           id="xtick_37">
          <g
             id="text_9">
            <!-- 0 -->
            <g
               transform="translate(41.995455 271.609173)scale(0.16 -0.16)"
               id="g925">
              <use
                 xlink:href="#STIXGeneral-Regular-30"
                 id="use923" />
            </g>
          </g>
        </g>
        <g
           id="xtick_38">
          <g
             id="text_10">
            <!-- 50 -->
            <g
               transform="translate(91.367521 271.609173)scale(0.16 -0.16)"
               id="g936">
              <defs
                 id="defs930">
                <path
                   d="M 2803 4358  L 2573 3814  Q 2534 3731 2400 3731  L 1158 3731  L 902 3187  Q 1606 3053 1920 2896  Q 2234 2739 2502 2368  Q 2726 2061 2726 1555  Q 2726 1094 2576 780  Q 2426 467 2099 224  Q 1664 -90 1011 -90  Q 646 -90 422 19  Q 198 128 198 307  Q 198 550 486 550  Q 717 550 960 352  Q 1210 147 1414 147  Q 1747 147 2012 480  Q 2278 813 2278 1229  Q 2278 1843 1850 2189  Q 1293 2637 486 2637  Q 410 2637 410 2688  L 416 2720  L 1114 4237  L 2438 4237  Q 2547 4237 2608 4269  Q 2669 4301 2746 4403  L 2803 4358  z "
                   id="STIXGeneral-Regular-35"
                   transform="scale(0.015625)" />
              </defs>
              <use
                 xlink:href="#STIXGeneral-Regular-35"
                 id="use932" />
              <use
                 x="49.999985"
                 xlink:href="#STIXGeneral-Regular-30"
                 id="use934" />
            </g>
          </g>
        </g>
        <g
           id="xtick_39">
          <g
             id="text_11">
            <!-- 100 -->
            <g
               transform="translate(140.739588 271.609173)scale(0.16 -0.16)"
               id="g946">
              <use
                 xlink:href="#STIXGeneral-Regular-31"
                 id="use940" />
              <use
                 x="49.999985"
                 xlink:href="#STIXGeneral-Regular-30"
                 id="use942" />
              <use
                 x="99.999969"
                 xlink:href="#STIXGeneral-Regular-30"
                 id="use944" />
            </g>
          </g>
        </g>
        <g
           id="xtick_40">
          <g
             id="text_12">
            <!-- 150 -->
            <g
               transform="translate(194.111654 271.609173)scale(0.16 -0.16)"
               id="g956">
              <use
                 xlink:href="#STIXGeneral-Regular-31"
                 id="use950" />
              <use
                 x="49.999985"
                 xlink:href="#STIXGeneral-Regular-35"
                 id="use952" />
              <use
                 x="99.999969"
                 xlink:href="#STIXGeneral-Regular-30"
                 id="use954" />
            </g>
          </g>
        </g>
        <g
           id="xtick_41">
          <g
             id="text_13">
            <!-- 200 -->
            <g
               transform="translate(247.483721 271.609173)scale(0.16 -0.16)"
               id="g969">
              <defs
                 id="defs961">
                <path
                   d="M 3034 877  L 2688 0  L 186 0  L 186 77  L 1325 1286  Q 1773 1754 1965 2144  Q 2157 2534 2157 2950  Q 2157 3379 1920 3616  Q 1683 3853 1267 3853  Q 922 3853 720 3673  Q 518 3494 326 3021  L 192 3053  Q 301 3648 630 3987  Q 960 4326 1523 4326  Q 2054 4326 2380 4006  Q 2707 3686 2707 3200  Q 2707 2477 1888 1613  L 832 486  L 2330 486  Q 2541 486 2665 569  Q 2790 653 2944 915  L 3034 877  z "
                   id="STIXGeneral-Regular-32"
                   transform="scale(0.015625)" />
              </defs>
              <use
                 xlink:href="#STIXGeneral-Regular-32"
                 id="use963" />
              <use
                 x="49.999985"
                 xlink:href="#STIXGeneral-Regular-30"
                 id="use965" />
              <use
                 x="99.999969"
                 xlink:href="#STIXGeneral-Regular-30"
                 id="use967" />
            </g>
          </g>
        </g>
        <g
           id="xtick_42">
          <g
             id="text_14">
            <!-- 250 -->
            <g
               transform="translate(300.855787 271.609173)scale(0.16 -0.16)"
               id="g979">
              <use
                 xlink:href="#STIXGeneral-Regular-32"
                 id="use973" />
              <use
                 x="49.999985"
                 xlink:href="#STIXGeneral-Regular-35"
                 id="use975" />
              <use
                 x="99.999969"
                 xlink:href="#STIXGeneral-Regular-30"
                 id="use977" />
            </g>
          </g>
        </g>
        <g
           id="xtick_43">
          <g
             id="text_15">
            <!-- 300 -->
            <g
               transform="translate(354.227854 271.609173)scale(0.16 -0.16)"
               id="g992">
              <defs
                 id="defs984">
                <path
                   d="M 390 3264  L 288 3290  Q 435 3770 748 4048  Q 1062 4326 1542 4326  Q 1990 4326 2265 4083  Q 2541 3840 2541 3450  Q 2541 2925 1946 2566  Q 2298 2413 2477 2227  Q 2758 1914 2758 1402  Q 2758 890 2464 506  Q 2246 211 1840 60  Q 1434 -90 979 -90  Q 262 -90 262 275  Q 262 378 339 442  Q 416 506 525 506  Q 685 506 915 339  Q 1197 141 1466 141  Q 1818 141 2058 425  Q 2298 710 2298 1120  Q 2298 1856 1632 2048  Q 1434 2112 979 2112  L 979 2202  Q 1338 2323 1517 2432  Q 2035 2726 2035 3290  Q 2035 3610 1852 3776  Q 1670 3942 1344 3942  Q 768 3942 390 3264  z "
                   id="STIXGeneral-Regular-33"
                   transform="scale(0.015625)" />
              </defs>
              <use
                 xlink:href="#STIXGeneral-Regular-33"
                 id="use986" />
              <use
                 x="49.999985"
                 xlink:href="#STIXGeneral-Regular-30"
                 id="use988" />
              <use
                 x="99.999969"
                 xlink:href="#STIXGeneral-Regular-30"
                 id="use990" />
            </g>
          </g>
        </g>
        <g
           id="xtick_44">
          <g
             id="text_16">
            <!-- 350 -->
            <g
               transform="translate(407.59992 271.609173)scale(0.16 -0.16)"
               id="g1002">
              <use
                 xlink:href="#STIXGeneral-Regular-33"
                 id="use996" />
              <use
                 x="49.999985"
                 xlink:href="#STIXGeneral-Regular-35"
                 id="use998" />
              <use
                 x="99.999969"
                 xlink:href="#STIXGeneral-Regular-30"
                 id="use1000" />
            </g>
          </g>
        </g>
        <g
           id="xtick_45">
          <g
             id="text_17">
            <!-- 400 -->
            <g
               transform="translate(460.971987 271.609173)scale(0.16 -0.16)"
               id="g1015">
              <defs
                 id="defs1007">
                <path
                   d="M 3027 1069  L 2368 1069  L 2368 0  L 1869 0  L 1869 1069  L 77 1069  L 77 1478  L 2086 4326  L 2368 4326  L 2368 1478  L 3027 1478  L 3027 1069  z M 1869 1478  L 1869 3674  L 333 1478  L 1869 1478  z "
                   id="STIXGeneral-Regular-34"
                   transform="scale(0.015625)" />
              </defs>
              <use
                 xlink:href="#STIXGeneral-Regular-34"
                 id="use1009" />
              <use
                 x="49.999985"
                 xlink:href="#STIXGeneral-Regular-30"
                 id="use1011" />
              <use
                 x="99.999969"
                 xlink:href="#STIXGeneral-Regular-30"
                 id="use1013" />
            </g>
          </g>
        </g>
        <g
           id="text_18">
          <!-- Timesteps -->
          <g
             transform="translate(224.005703 290.692142)scale(0.17 -0.17)"
             id="g1046">
            <defs
               id="defs1026">
              <path
                 d="M 3795 3149  L 3642 3149  Q 3539 3674 3353 3821  Q 3168 3968 2656 3968  L 2278 3968  L 2278 710  Q 2278 346 2387 243  Q 2496 141 2893 122  L 2893 0  L 1024 0  L 1024 122  Q 1427 147 1526 256  Q 1626 365 1626 787  L 1626 3968  L 1242 3968  Q 723 3968 540 3817  Q 358 3667 262 3149  L 109 3149  L 154 4237  L 3750 4237  L 3795 3149  z "
                 id="STIXGeneral-Regular-54"
                 transform="scale(0.015625)" />
              <path
                 d="M 1152 4045  Q 1152 3904 1056 3811  Q 960 3718 819 3718  Q 685 3718 592 3811  Q 499 3904 499 4045  Q 499 4179 595 4275  Q 691 4371 826 4371  Q 966 4371 1059 4275  Q 1152 4179 1152 4045  z M 1619 0  L 102 0  L 102 96  Q 435 115 521 211  Q 608 307 608 666  L 608 2118  Q 608 2342 563 2432  Q 518 2522 397 2522  Q 243 2522 128 2490  L 128 2592  L 1120 2944  L 1146 2918  L 1146 672  Q 1146 314 1226 218  Q 1306 122 1619 96  L 1619 0  z "
                 id="STIXGeneral-Regular-69"
                 transform="scale(0.015625)" />
              <path
                 d="M 4960 0  L 3565 0  L 3565 96  Q 3834 122 3907 208  Q 3981 294 3981 576  L 3981 1894  Q 3981 2278 3869 2444  Q 3757 2611 3488 2611  Q 3264 2611 3107 2521  Q 2950 2432 2803 2221  L 2803 608  Q 2803 301 2896 201  Q 2989 102 3264 96  L 3264 0  L 1830 0  L 1830 96  Q 2112 115 2189 188  Q 2266 262 2266 550  L 2266 1901  Q 2266 2611 1850 2611  Q 1670 2611 1468 2531  Q 1267 2451 1171 2336  Q 1088 2240 1088 2227  L 1088 448  Q 1088 243 1177 176  Q 1267 109 1523 96  L 1523 0  L 102 0  L 102 96  Q 371 102 460 195  Q 550 288 550 563  L 550 2150  Q 550 2387 499 2480  Q 448 2573 326 2573  Q 230 2573 122 2547  L 122 2656  Q 557 2778 1011 2944  L 1062 2925  L 1062 2451  L 1075 2451  Q 1363 2752 1584 2848  Q 1805 2944 2054 2944  Q 2560 2944 2733 2406  Q 3232 2944 3776 2944  Q 4518 2944 4518 1792  L 4518 493  Q 4518 282 4582 202  Q 4646 122 4794 109  L 4960 96  L 4960 0  z "
                 id="STIXGeneral-Regular-6d"
                 transform="scale(0.015625)" />
              <path
                 d="M 2611 1050  L 2714 1005  Q 2330 -64 1376 -64  Q 813 -64 486 329  Q 160 723 160 1389  Q 160 2074 525 2509  Q 890 2944 1485 2944  Q 2061 2944 2374 2502  Q 2560 2246 2592 1773  L 621 1773  Q 646 1370 700 1158  Q 755 947 915 730  Q 1184 378 1626 378  Q 1939 378 2153 531  Q 2368 685 2611 1050  z M 634 1978  L 1939 1978  Q 1882 2381 1750 2547  Q 1619 2714 1312 2714  Q 1043 2714 864 2525  Q 685 2336 634 1978  z "
                 id="STIXGeneral-Regular-65"
                 transform="scale(0.015625)" />
              <path
                 d="M 998 1926  L 1664 1523  Q 1984 1331 2105 1164  Q 2227 998 2227 736  Q 2227 416 1961 176  Q 1696 -64 1331 -64  Q 1030 -64 864 -6  Q 691 51 570 51  Q 461 51 416 -26  L 333 -26  L 333 979  L 435 979  Q 538 512 730 294  Q 922 77 1248 77  Q 1485 77 1632 211  Q 1779 346 1779 550  Q 1779 845 1440 1030  L 1094 1222  Q 326 1651 326 2150  Q 326 2522 566 2730  Q 806 2938 1210 2938  Q 1491 2938 1638 2867  Q 1754 2816 1818 2816  Q 1862 2816 1920 2880  L 1990 2880  L 2022 2010  L 1926 2010  Q 1818 2445 1654 2621  Q 1491 2797 1203 2797  Q 986 2797 854 2688  Q 723 2579 723 2362  Q 723 2253 796 2128  Q 870 2003 998 1926  z "
                 id="STIXGeneral-Regular-73"
                 transform="scale(0.015625)" />
              <path
                 d="M 1702 493  L 1786 422  Q 1478 -64 1011 -64  Q 448 -64 448 749  L 448 2675  L 109 2675  Q 83 2694 83 2720  Q 83 2771 192 2842  Q 435 2982 813 3526  Q 826 3546 874 3606  Q 922 3667 941 3706  Q 986 3706 986 3622  L 986 2880  L 1632 2880  L 1632 2675  L 986 2675  L 986 845  Q 986 538 1062 403  Q 1139 269 1318 269  Q 1510 269 1702 493  z "
                 id="STIXGeneral-Regular-74"
                 transform="scale(0.015625)" />
              <path
                 d="M 1018 2931  L 1018 2438  Q 1421 2944 1939 2944  Q 2406 2944 2707 2560  Q 3008 2176 3008 1581  Q 3008 883 2621 409  Q 2234 -64 1664 -64  Q 1466 -64 1328 -6  Q 1190 51 1018 211  L 1018 -794  Q 1018 -1094 1120 -1180  Q 1222 -1267 1581 -1274  L 1581 -1389  L 32 -1389  L 32 -1280  Q 314 -1254 397 -1171  Q 480 -1088 480 -838  L 480 2157  Q 480 2381 429 2451  Q 378 2522 218 2522  Q 115 2522 58 2515  L 58 2618  Q 506 2752 979 2944  L 1018 2931  z M 1018 2138  L 1018 563  Q 1018 422 1238 281  Q 1459 141 1683 141  Q 2029 141 2243 467  Q 2458 794 2458 1325  Q 2458 1888 2243 2224  Q 2029 2560 1670 2560  Q 1446 2560 1232 2419  Q 1018 2278 1018 2138  z "
                 id="STIXGeneral-Regular-70"
                 transform="scale(0.015625)" />
            </defs>
            <use
               xlink:href="#STIXGeneral-Regular-54"
               id="use1028" />
            <use
               x="61.099991"
               xlink:href="#STIXGeneral-Regular-69"
               id="use1030" />
            <use
               x="88.899979"
               xlink:href="#STIXGeneral-Regular-6d"
               id="use1032" />
            <use
               x="166.699966"
               xlink:href="#STIXGeneral-Regular-65"
               id="use1034" />
            <use
               x="211.09996"
               xlink:href="#STIXGeneral-Regular-73"
               id="use1036" />
            <use
               x="249.999954"
               xlink:href="#STIXGeneral-Regular-74"
               id="use1038" />
            <use
               x="277.799942"
               xlink:href="#STIXGeneral-Regular-65"
               id="use1040" />
            <use
               x="322.199936"
               xlink:href="#STIXGeneral-Regular-70"
               id="use1042" />
            <use
               x="372.199921"
               xlink:href="#STIXGeneral-Regular-73"
               id="use1044" />
          </g>
        </g>
      </g>
      <g
         id="matplotlib.axis_10">
        <g
           id="ytick_9">
          <g
             id="text_19">
            <!-- 0 -->
            <g
               transform="translate(7.2 254.496966)scale(0.16 -0.16)"
               id="g1052">
              <use
                 xlink:href="#STIXGeneral-Regular-30"
                 id="use1050" />
            </g>
          </g>
        </g>
        <g
           id="ytick_10">
          <g
             id="text_20">
            <!-- 1 -->
            <g
               transform="translate(7.2 233.012396)scale(0.16 -0.16)"
               id="g1058">
              <use
                 xlink:href="#STIXGeneral-Regular-31"
                 id="use1056" />
            </g>
          </g>
        </g>
      </g>
    </g>
  </g>
  <defs
     id="defs1080">
    <clipPath
       id="p155043dc7d">
      <rect
         height="25.781484"
         width="468.5"
         x="24.7"
         y="10.515293"
         id="rect1065" />
    </clipPath>
    <clipPath
       id="p87d45964da">
      <rect
         height="25.781484"
         width="468.5"
         x="24.7"
         y="64.236517"
         id="rect1068" />
    </clipPath>
    <clipPath
       id="pb8ba6e4408">
      <rect
         height="25.781484"
         width="468.5"
         x="24.7"
         y="117.957741"
         id="rect1071" />
    </clipPath>
    <clipPath
       id="p7f36d6a066">
      <rect
         height="25.781484"
         width="468.5"
         x="24.7"
         y="171.678965"
         id="rect1074" />
    </clipPath>
    <clipPath
       id="p3aca4b513c">
      <rect
         height="25.781484"
         width="468.5"
         x="24.7"
         y="225.400189"
         id="rect1077" />
    </clipPath>
  </defs>
  <text
     xml:space="preserve"
     style="font-style:normal;font-weight:normal;font-size:11px;line-height:1.25;font-family:sans-serif;fill:#e62527;fill-opacity:1;stroke:none;stroke-width:0.75;stroke-linecap:butt;stroke-linejoin:round"
     x="436.59702"
     y="25.180025"
     id="text4473-8"><tspan
       sodipodi:role="line"
       id="tspan4471-8"
       style="font-style:normal;font-variant:normal;font-weight:normal;font-stretch:normal;font-size:11px;font-family:STIXGeneral;-inkscape-font-specification:STIXGeneral;fill:#e62527;fill-opacity:1;stroke-width:0.75"
       x="436.59702"
       y="25.180025">T-BPTT</tspan></text>
  <text
     xml:space="preserve"
     style="font-style:normal;font-weight:normal;font-size:11px;line-height:1.25;font-family:sans-serif;fill:#4daf4a;fill-opacity:1;stroke:none;stroke-width:0.75;stroke-linecap:butt;stroke-linejoin:round"
     x="383.10413"
     y="132.65956"
     id="text4473-5-8"><tspan
       sodipodi:role="line"
       id="tspan4471-4-7"
       style="font-style:normal;font-variant:normal;font-weight:normal;font-stretch:normal;font-size:11px;font-family:STIXGeneral;-inkscape-font-specification:STIXGeneral;fill:#4daf4a;fill-opacity:1;stroke-width:0.75"
       x="383.10413"
       y="132.65956">Columnar Networks</tspan></text>
  <text
     xml:space="preserve"
     style="font-style:normal;font-weight:normal;font-size:11px;line-height:1.25;font-family:sans-serif;fill:#3e83ba;fill-opacity:1;stroke:none;stroke-width:0.75;stroke-linecap:butt;stroke-linejoin:round"
     x="440.07629"
     y="78.201401"
     id="text4473"><tspan
       sodipodi:role="line"
       id="tspan4471"
       style="font-style:normal;font-variant:normal;font-weight:normal;font-stretch:normal;font-size:11px;font-family:STIXGeneral;-inkscape-font-specification:STIXGeneral;fill:#3e83ba;fill-opacity:1;stroke-width:0.75"
       x="440.07629"
       y="78.201401">SnAp-1</tspan></text>
  <text
     xml:space="preserve"
     style="font-style:normal;font-weight:normal;font-size:11px;line-height:1.25;font-family:sans-serif;fill:#984ea3;fill-opacity:1;stroke:none;stroke-width:0.75;stroke-linecap:butt;stroke-linejoin:round"
     x="360.52319"
     y="183.47842"
     id="text4473-5-8-0"><tspan
       sodipodi:role="line"
       id="tspan4471-4-7-6"
       style="font-style:normal;font-variant:normal;font-weight:normal;font-stretch:normal;font-size:11px;font-family:STIXGeneral;-inkscape-font-specification:STIXGeneral;fill:#984ea3;fill-opacity:1;stroke-width:0.75"
       x="360.52319"
       y="183.47842">Constructive Networks</tspan></text>
  <text
     xml:space="preserve"
     style="font-style:normal;font-weight:normal;font-size:11px;line-height:1.25;font-family:sans-serif;fill:#ff7f00;fill-opacity:1;stroke:none;stroke-width:0.75;stroke-linecap:butt;stroke-linejoin:round"
     x="396.33224"
     y="237.60098"
     id="text4473-5"><tspan
       sodipodi:role="line"
       id="tspan4471-4"
       style="font-style:normal;font-variant:normal;font-weight:normal;font-stretch:normal;font-size:11px;font-family:STIXGeneral;-inkscape-font-specification:STIXGeneral;fill:#ff7f00;fill-opacity:1;stroke-width:0.75"
       x="396.33224"
       y="237.60098">Hybrid Networks</tspan></text>
  <text
     xml:space="preserve"
     style="font-style:normal;font-weight:normal;font-size:11px;line-height:1.25;font-family:sans-serif;fill:#c4c4c4;fill-opacity:1;stroke:none;stroke-width:0.75;stroke-linecap:butt;stroke-linejoin:round"
     x="260.77451"
     y="25.013288"
     id="text4473-5-3"><tspan
       sodipodi:role="line"
       id="tspan4471-4-3"
       style="font-style:normal;font-variant:normal;font-weight:normal;font-stretch:normal;font-size:11px;font-family:STIXGeneral;-inkscape-font-specification:STIXGeneral;fill:#707070;fill-opacity:1;stroke-width:0.75"
       x="260.77451"
       y="25.013288">Prediction Target</tspan></text>
</svg>
