<?xml version="1.0" encoding="UTF-8" standalone="no"?>
<svg
   height="302.4pt"
   version="1.1"
   viewBox="0 0 500.4 302.4"
   width="500.4pt"
   id="svg66893"
   sodipodi:docname="plt_animal.svg"
   inkscape:version="1.1.2 (b8e25be8, 2022-02-05)"
   xmlns:inkscape="http://www.inkscape.org/namespaces/inkscape"
   xmlns:sodipodi="http://sodipodi.sourceforge.net/DTD/sodipodi-0.dtd"
   xmlns:xlink="http://www.w3.org/1999/xlink"
   xmlns="http://www.w3.org/2000/svg"
   xmlns:svg="http://www.w3.org/2000/svg"
   xmlns:rdf="http://www.w3.org/1999/02/22-rdf-syntax-ns#"
   xmlns:cc="http://creativecommons.org/ns#"
   xmlns:dc="http://purl.org/dc/elements/1.1/">
  <sodipodi:namedview
     id="namedview66895"
     pagecolor="#505050"
     bordercolor="#ffffff"
     borderopacity="1"
     inkscape:pageshadow="0"
     inkscape:pageopacity="0"
     inkscape:pagecheckerboard="1"
     inkscape:document-units="pt"
     showgrid="true"
     inkscape:zoom="1.6891487"
     inkscape:cx="333.896"
     inkscape:cy="201.87684"
     inkscape:window-width="957"
     inkscape:window-height="1172"
     inkscape:window-x="963"
     inkscape:window-y="28"
     inkscape:window-maximized="0"
     inkscape:current-layer="svg66893">
    <inkscape:grid
       type="xygrid"
       id="grid98958" />
  </sodipodi:namedview>
  <metadata
     id="metadata66647">
    <rdf:RDF>
      <cc:Work>
        <dc:type
           rdf:resource="http://purl.org/dc/dcmitype/StillImage" />
        <dc:date>2022-02-15T17:19:33.235962</dc:date>
        <dc:format>image/svg+xml</dc:format>
        <dc:creator>
          <cc:Agent>
            <dc:title>Matplotlib v3.4.3, https://matplotlib.org/</dc:title>
          </cc:Agent>
        </dc:creator>
      </cc:Work>
    </rdf:RDF>
  </metadata>
  <defs
     id="defs66651">
    <style
       type="text/css"
       id="style66649">*{stroke-linecap:butt;stroke-linejoin:round;}</style>
  </defs>
  <g
     id="figure_1">
    <g
       id="patch_1">
      <path
         d="M 0 302.4  L 500.4 302.4  L 500.4 0  L 0 0  z "
         style="fill:#ffffff;"
         id="path66653" />
    </g>
    <g
       id="axes_1">
      <g
         id="patch_2">
        <path
           d="M 64 252  L 493.2 252  L 493.2 7.2  L 64 7.2  z "
           style="fill:none;"
           id="path66656" />
      </g>
      <g
         id="PolyCollection_1">
        <defs
           id="defs66660">
          <path
             d="M 83.509091 -220.267673  L 83.509091 -206.452119  L 87.531584 -185.130856  L 91.554077 -185.358505  L 95.57657 -185.614942  L 99.599063 -181.496982  L 103.621556 -190.141766  L 107.644049 -184.474385  L 111.666542 -183.534044  L 115.689035 -179.725336  L 119.711528 -175.669762  L 123.734021 -185.209625  L 127.756514 -184.087576  L 131.779007 -185.192142  L 135.8015 -181.881388  L 139.823993 -180.248746  L 143.846485 -181.720194  L 147.868978 -181.043773  L 151.891471 -182.198843  L 155.913964 -182.004368  L 159.936457 -182.715998  L 163.95895 -180.034133  L 167.981443 -186.203005  L 172.003936 -178.140139  L 176.026429 -186.788328  L 180.048922 -181.289137  L 184.071415 -186.166255  L 188.093908 -185.233688  L 192.116401 -185.572522  L 196.138894 -184.023182  L 200.161387 -182.910845  L 204.18388 -177.029016  L 208.206373 -181.810432  L 212.228866 -182.426696  L 216.251359 -180.321679  L 220.273852 -184.837172  L 224.296345 -183.166955  L 228.318838 -178.693505  L 232.341331 -181.93299  L 236.363824 -180.03262  L 240.386317 -184.446029  L 244.40881 -184.297325  L 248.431303 -184.610574  L 252.453796 -187.929218  L 256.476289 -183.00141  L 260.498782 -186.184773  L 264.521275 -181.595919  L 268.543768 -180.757164  L 272.566261 -181.341636  L 276.588754 -185.442649  L 280.611246 -181.539655  L 284.633739 -176.643761  L 288.656232 -182.246222  L 292.678725 -178.086509  L 296.701218 -181.193783  L 300.723711 -180.480292  L 304.746204 -184.087937  L 308.768697 -178.772336  L 312.79119 -174.566943  L 316.813683 -180.735834  L 320.836176 -173.715988  L 324.858669 -171.197661  L 328.881162 -165.223429  L 332.903655 -166.806083  L 336.926148 -163.621464  L 340.948641 -163.75497  L 344.971134 -164.102372  L 348.993627 -160.053613  L 353.01612 -155.831718  L 357.038613 -153.963421  L 361.061106 -155.953839  L 365.083599 -150.10096  L 369.106092 -154.398033  L 373.128585 -154.123141  L 377.151078 -157.355136  L 381.173571 -153.173506  L 385.196064 -151.296176  L 389.218557 -146.902987  L 393.24105 -153.851007  L 397.263543 -147.163525  L 401.286036 -139.323863  L 405.308529 -139.964907  L 409.331022 -138.914402  L 413.353515 -143.681254  L 417.376007 -140.170627  L 421.3985 -141.013394  L 425.420993 -145.800383  L 429.443486 -137.767199  L 433.465979 -134.51801  L 437.488472 -133.073277  L 441.510965 -134.163917  L 445.533458 -131.788535  L 449.555951 -129.844925  L 453.578444 -128.305266  L 457.600937 -132.534174  L 461.62343 -129.209022  L 465.645923 -130.227784  L 469.668416 -128.514363  L 473.690909 -122.435522  L 473.690909 -139.674591  L 473.690909 -139.674591  L 469.668416 -153.260161  L 465.645923 -158.584366  L 461.62343 -146.908176  L 457.600937 -156.97491  L 453.578444 -146.700626  L 449.555951 -148.178772  L 445.533458 -161.903846  L 441.510965 -154.284919  L 437.488472 -156.931054  L 433.465979 -157.201506  L 429.443486 -158.420713  L 425.420993 -168.981068  L 421.3985 -166.165541  L 417.376007 -170.077349  L 413.353515 -174.351584  L 409.331022 -161.690293  L 405.308529 -162.774312  L 401.286036 -160.740992  L 397.263543 -172.458219  L 393.24105 -174.714914  L 389.218557 -170.471113  L 385.196064 -178.420972  L 381.173571 -176.002612  L 377.151078 -184.396117  L 373.128585 -172.26769  L 369.106092 -178.121911  L 365.083599 -172.911784  L 361.061106 -178.177076  L 357.038613 -175.743476  L 353.01612 -177.399133  L 348.993627 -183.591661  L 344.971134 -183.399945  L 340.948641 -184.73177  L 336.926148 -183.996925  L 332.903655 -184.546839  L 328.881162 -180.206474  L 324.858669 -187.370845  L 320.836176 -188.577242  L 316.813683 -188.602573  L 312.79119 -185.623103  L 308.768697 -189.990718  L 304.746204 -193.88633  L 300.723711 -192.843444  L 296.701218 -191.7427  L 292.678725 -191.645797  L 288.656232 -194.583577  L 284.633739 -189.991633  L 280.611246 -193.242439  L 276.588754 -193.578427  L 272.566261 -194.254113  L 268.543768 -191.983236  L 264.521275 -193.972172  L 260.498782 -193.277752  L 256.476289 -190.306605  L 252.453796 -198.289754  L 248.431303 -193.470225  L 244.40881 -194.276647  L 240.386317 -190.129296  L 236.363824 -190.743533  L 232.341331 -193.778208  L 228.318838 -194.335752  L 224.296345 -197.516451  L 220.273852 -193.802487  L 216.251359 -192.026405  L 212.228866 -197.189076  L 208.206373 -193.176634  L 204.18388 -190.805006  L 200.161387 -196.624343  L 196.138894 -191.879842  L 192.116401 -193.224633  L 188.093908 -197.509266  L 184.071415 -199.203827  L 180.048922 -187.579521  L 176.026429 -197.633406  L 172.003936 -190.025602  L 167.981443 -195.353481  L 163.95895 -189.664227  L 159.936457 -194.697421  L 155.913964 -193.264679  L 151.891471 -194.557495  L 147.868978 -191.838869  L 143.846485 -191.625191  L 139.823993 -189.470707  L 135.8015 -193.777075  L 131.779007 -194.117156  L 127.756514 -193.571177  L 123.734021 -199.184962  L 119.711528 -186.132726  L 115.689035 -194.349569  L 111.666542 -190.460042  L 107.644049 -193.397527  L 103.621556 -201.637122  L 99.599063 -193.423823  L 95.57657 -195.493509  L 91.554077 -194.617829  L 87.531584 -195.638181  L 83.509091 -220.267673  z "
             id="m09edb11912"
             style="stroke:#e41a1c;stroke-opacity:0.2;" />
        </defs>
        <g
           clip-path="url(#p54be13fe48)"
           id="g66664">
          <use
             style="fill:#e41a1c;fill-opacity:0.2;stroke:#e41a1c;stroke-opacity:0.2;"
             x="0"
             xlink:href="#m09edb11912"
             y="302.4"
             id="use66662" />
        </g>
      </g>
      <g
         id="PolyCollection_2">
        <defs
           id="defs66668">
          <path
             d="M 83.509091 -220.281498  L 83.509091 -213.393686  L 87.531584 -194.150216  L 91.554077 -192.045522  L 95.57657 -191.873897  L 99.599063 -194.321987  L 103.621556 -189.745558  L 107.644049 -194.519566  L 111.666542 -191.35925  L 115.689035 -188.185934  L 119.711528 -188.36486  L 123.734021 -191.029756  L 127.756514 -192.734909  L 131.779007 -193.54655  L 135.8015 -191.704292  L 139.823993 -191.354658  L 143.846485 -192.078091  L 147.868978 -192.099245  L 151.891471 -190.9153  L 155.913964 -194.660572  L 159.936457 -190.249193  L 163.95895 -190.507346  L 167.981443 -189.813584  L 172.003936 -190.921649  L 176.026429 -193.283231  L 180.048922 -187.360163  L 184.071415 -190.355375  L 188.093908 -191.482402  L 192.116401 -190.620596  L 196.138894 -193.527903  L 200.161387 -191.485049  L 204.18388 -189.673226  L 208.206373 -192.173689  L 212.228866 -194.399962  L 216.251359 -193.052556  L 220.273852 -192.599515  L 224.296345 -189.727061  L 228.318838 -191.737134  L 232.341331 -193.320646  L 236.363824 -193.449289  L 240.386317 -191.549637  L 244.40881 -194.047275  L 248.431303 -192.156352  L 252.453796 -193.238507  L 256.476289 -192.671253  L 260.498782 -190.634551  L 264.521275 -186.842617  L 268.543768 -190.820426  L 272.566261 -189.41416  L 276.588754 -190.280542  L 280.611246 -195.111237  L 284.633739 -190.629455  L 288.656232 -190.714995  L 292.678725 -191.737275  L 296.701218 -183.955502  L 300.723711 -185.00621  L 304.746204 -184.860402  L 308.768697 -181.063414  L 312.79119 -182.490465  L 316.813683 -176.521845  L 320.836176 -180.567217  L 324.858669 -179.706908  L 328.881162 -175.44095  L 332.903655 -171.922095  L 336.926148 -173.222091  L 340.948641 -173.405017  L 344.971134 -175.696335  L 348.993627 -176.012802  L 353.01612 -165.899953  L 357.038613 -169.076383  L 361.061106 -168.123293  L 365.083599 -167.273297  L 369.106092 -163.688061  L 373.128585 -167.641497  L 377.151078 -161.827231  L 381.173571 -162.445829  L 385.196064 -159.872024  L 389.218557 -157.64789  L 393.24105 -158.867559  L 397.263543 -155.327845  L 401.286036 -155.869191  L 405.308529 -148.601394  L 409.331022 -150.156715  L 413.353515 -151.230262  L 417.376007 -151.488561  L 421.3985 -150.602133  L 425.420993 -146.348752  L 429.443486 -148.533105  L 433.465979 -148.181297  L 437.488472 -147.978596  L 441.510965 -148.426084  L 445.533458 -146.411892  L 449.555951 -140.403416  L 453.578444 -138.341527  L 457.600937 -143.134374  L 461.62343 -138.244295  L 465.645923 -144.010201  L 469.668416 -137.992138  L 473.690909 -139.60216  L 473.690909 -162.103197  L 473.690909 -162.103197  L 469.668416 -160.346143  L 465.645923 -167.689675  L 461.62343 -162.570505  L 457.600937 -166.997805  L 453.578444 -161.665074  L 449.555951 -163.804242  L 445.533458 -169.831371  L 441.510965 -172.509886  L 437.488472 -173.305433  L 433.465979 -171.633149  L 429.443486 -171.313212  L 425.420993 -169.966843  L 421.3985 -172.479842  L 417.376007 -173.152876  L 413.353515 -173.570522  L 409.331022 -172.79062  L 405.308529 -169.671853  L 401.286036 -178.738117  L 397.263543 -178.558637  L 393.24105 -179.381119  L 389.218557 -178.085596  L 385.196064 -182.447009  L 381.173571 -186.708335  L 377.151078 -183.917961  L 373.128585 -188.571245  L 369.106092 -184.531143  L 365.083599 -189.735826  L 361.061106 -189.256091  L 357.038613 -190.394935  L 353.01612 -186.73301  L 348.993627 -194.094365  L 344.971134 -192.893983  L 340.948641 -190.172823  L 336.926148 -191.556408  L 332.903655 -190.498055  L 328.881162 -194.386911  L 324.858669 -197.206387  L 320.836176 -196.312059  L 316.813683 -193.739299  L 312.79119 -194.273149  L 308.768697 -194.379582  L 304.746204 -198.771288  L 300.723711 -198.421014  L 296.701218 -195.576112  L 292.678725 -198.260455  L 288.656232 -198.917488  L 284.633739 -196.903217  L 280.611246 -203.791717  L 276.588754 -198.158085  L 272.566261 -197.631874  L 268.543768 -196.972574  L 264.521275 -193.676954  L 260.498782 -197.075373  L 256.476289 -198.469127  L 252.453796 -199.559092  L 248.431303 -198.574021  L 244.40881 -201.293804  L 240.386317 -198.483186  L 236.363824 -199.664141  L 232.341331 -198.746817  L 228.318838 -198.378048  L 224.296345 -196.000861  L 220.273852 -198.776486  L 216.251359 -199.910479  L 212.228866 -201.417012  L 208.206373 -198.575304  L 204.18388 -198.55807  L 200.161387 -198.068656  L 196.138894 -200.865683  L 192.116401 -196.593737  L 188.093908 -197.88295  L 184.071415 -198.742846  L 180.048922 -195.565383  L 176.026429 -199.018062  L 172.003936 -198.861589  L 167.981443 -196.146377  L 163.95895 -197.668804  L 159.936457 -198.658884  L 155.913964 -201.720387  L 151.891471 -197.531205  L 147.868978 -197.687931  L 143.846485 -200.338863  L 139.823993 -197.201421  L 135.8015 -198.910777  L 131.779007 -200.993134  L 127.756514 -198.5573  L 123.734021 -198.938611  L 119.711528 -196.290954  L 115.689035 -196.207046  L 111.666542 -198.371349  L 107.644049 -201.45604  L 103.621556 -196.730404  L 99.599063 -201.757464  L 95.57657 -200.066446  L 91.554077 -199.229499  L 87.531584 -200.482928  L 83.509091 -220.281498  z "
             id="mf65be39f3b"
             style="stroke:#377eb8;stroke-opacity:0.2;" />
        </defs>
        <g
           clip-path="url(#p54be13fe48)"
           id="g66672">
          <use
             style="fill:#377eb8;fill-opacity:0.2;stroke:#377eb8;stroke-opacity:0.2;"
             x="0"
             xlink:href="#mf65be39f3b"
             y="302.4"
             id="use66670" />
        </g>
      </g>
      <g
         id="PolyCollection_3">
        <defs
           id="defs66676">
          <path
             d="M 83.509091 -284.072727  L 83.509091 -272.679448  L 87.531584 -259.61715  L 91.554077 -256.670084  L 95.57657 -255.766592  L 99.599063 -259.98643  L 103.621556 -243.38532  L 107.644049 -232.752805  L 111.666542 -226.35406  L 115.689035 -215.469252  L 119.711528 -209.218137  L 123.734021 -202.914179  L 127.756514 -193.880333  L 131.779007 -195.228014  L 135.8015 -187.889719  L 139.823993 -183.244009  L 143.846485 -176.316007  L 147.868978 -173.104184  L 151.891471 -165.37816  L 155.913964 -164.39245  L 159.936457 -155.751402  L 163.95895 -157.037496  L 167.981443 -152.394799  L 172.003936 -151.569847  L 176.026429 -154.915491  L 180.048922 -148.061744  L 184.071415 -146.454186  L 188.093908 -145.821026  L 192.116401 -144.550656  L 196.138894 -142.390157  L 200.161387 -141.972672  L 204.18388 -140.750651  L 208.206373 -142.293361  L 212.228866 -139.436547  L 216.251359 -141.487647  L 220.273852 -142.909017  L 224.296345 -135.474455  L 228.318838 -134.467064  L 232.341331 -132.863641  L 236.363824 -130.039169  L 240.386317 -131.393416  L 244.40881 -131.665952  L 248.431303 -128.123855  L 252.453796 -129.333638  L 256.476289 -126.469354  L 260.498782 -125.745662  L 264.521275 -128.64081  L 268.543768 -127.995654  L 272.566261 -126.561004  L 276.588754 -124.048348  L 280.611246 -123.986815  L 284.633739 -123.492703  L 288.656232 -121.888077  L 292.678725 -121.251532  L 296.701218 -117.107745  L 300.723711 -117.842231  L 304.746204 -115.60222  L 308.768697 -113.418666  L 312.79119 -111.23804  L 316.813683 -109.209961  L 320.836176 -110.516157  L 324.858669 -110.91045  L 328.881162 -108.300555  L 332.903655 -108.908118  L 336.926148 -107.977143  L 340.948641 -105.554204  L 344.971134 -105.443109  L 348.993627 -104.945669  L 353.01612 -103.499479  L 357.038613 -106.250838  L 361.061106 -103.540279  L 365.083599 -104.094854  L 369.106092 -102.397546  L 373.128585 -101.456147  L 377.151078 -100.553828  L 381.173571 -100.164865  L 385.196064 -98.506474  L 389.218557 -99.806968  L 393.24105 -97.244152  L 397.263543 -96.879252  L 401.286036 -96.76547  L 405.308529 -95.753954  L 409.331022 -94.469297  L 413.353515 -94.426755  L 417.376007 -95.823212  L 421.3985 -96.04653  L 425.420993 -92.421561  L 429.443486 -94.669884  L 433.465979 -94.363192  L 437.488472 -92.466831  L 441.510965 -92.341735  L 445.533458 -91.108257  L 449.555951 -91.132097  L 453.578444 -91.25898  L 457.600937 -92.176172  L 461.62343 -92.503318  L 465.645923 -91.485646  L 469.668416 -92.131779  L 473.690909 -91.367783  L 473.690909 -108.658399  L 473.690909 -108.658399  L 469.668416 -107.872345  L 465.645923 -107.201297  L 461.62343 -106.926903  L 457.600937 -109.124256  L 453.578444 -107.130179  L 449.555951 -105.408124  L 445.533458 -108.234519  L 441.510965 -106.614631  L 437.488472 -106.625822  L 433.465979 -109.17731  L 429.443486 -108.568502  L 425.420993 -107.241057  L 421.3985 -110.687663  L 417.376007 -112.384931  L 413.353515 -109.770368  L 409.331022 -109.904684  L 405.308529 -111.801114  L 401.286036 -111.661679  L 397.263543 -112.483788  L 393.24105 -112.977183  L 389.218557 -114.852763  L 385.196064 -115.913375  L 381.173571 -115.546169  L 377.151078 -115.907573  L 373.128585 -116.164878  L 369.106092 -119.202593  L 365.083599 -122.25407  L 361.061106 -121.508401  L 357.038613 -122.599705  L 353.01612 -121.189576  L 348.993627 -122.286364  L 344.971134 -122.981635  L 340.948641 -123.733561  L 336.926148 -126.748327  L 332.903655 -127.581995  L 328.881162 -127.265878  L 324.858669 -133.966057  L 320.836176 -134.148041  L 316.813683 -129.582462  L 312.79119 -134.632655  L 308.768697 -134.074477  L 304.746204 -134.980627  L 300.723711 -139.256013  L 296.701218 -136.408428  L 292.678725 -142.180525  L 288.656232 -141.460474  L 284.633739 -141.917883  L 280.611246 -144.597373  L 276.588754 -145.10541  L 272.566261 -146.463942  L 268.543768 -150.607222  L 264.521275 -151.267037  L 260.498782 -148.671699  L 256.476289 -152.709002  L 252.453796 -155.974099  L 248.431303 -154.369118  L 244.40881 -155.029867  L 240.386317 -154.347605  L 236.363824 -154.277531  L 232.341331 -153.876688  L 228.318838 -155.994774  L 224.296345 -156.589349  L 220.273852 -161.153974  L 216.251359 -162.945605  L 212.228866 -158.725127  L 208.206373 -162.093411  L 204.18388 -163.360001  L 200.161387 -165.565645  L 196.138894 -164.131125  L 192.116401 -162.529168  L 188.093908 -163.455543  L 184.071415 -163.875656  L 180.048922 -162.804581  L 176.026429 -174.713573  L 172.003936 -173.484533  L 167.981443 -174.559331  L 163.95895 -176.386341  L 159.936457 -174.696567  L 155.913964 -183.815402  L 151.891471 -183.203498  L 147.868978 -189.740762  L 143.846485 -191.23282  L 139.823993 -200.695133  L 135.8015 -204.77811  L 131.779007 -217.014368  L 127.756514 -215.435812  L 123.734021 -223.500108  L 119.711528 -229.583324  L 115.689035 -239.108838  L 111.666542 -249.664064  L 107.644049 -258.789855  L 103.621556 -259.431369  L 99.599063 -272.321483  L 95.57657 -268.683927  L 91.554077 -268.195599  L 87.531584 -269.038973  L 83.509091 -284.072727  z "
             id="me9ffedb1e7"
             style="stroke:#4daf4a;stroke-opacity:0.2;" />
        </defs>
        <g
           clip-path="url(#p54be13fe48)"
           id="g66680">
          <use
             style="fill:#4daf4a;fill-opacity:0.2;stroke:#4daf4a;stroke-opacity:0.2;"
             x="0"
             xlink:href="#me9ffedb1e7"
             y="302.4"
             id="use66678" />
        </g>
      </g>
      <g
         id="PolyCollection_4">
        <defs
           id="defs66684">
          <path
             d="M 83.509091 -219.541715  L 83.509091 -212.096393  L 87.531584 -192.76742  L 91.554077 -190.975265  L 95.57657 -190.638799  L 99.599063 -193.450103  L 103.621556 -188.952173  L 107.644049 -193.320423  L 111.666542 -190.213075  L 115.689035 -182.591501  L 119.711528 -177.776606  L 123.734021 -172.200665  L 127.756514 -153.795983  L 131.779007 -136.87562  L 135.8015 -130.534199  L 139.823993 -126.778429  L 143.846485 -131.258442  L 147.868978 -128.155491  L 151.891471 -123.574531  L 155.913964 -125.009659  L 159.936457 -116.51883  L 163.95895 -114.288081  L 167.981443 -111.866455  L 172.003936 -111.83104  L 176.026429 -110.887352  L 180.048922 -112.755344  L 184.071415 -115.978949  L 188.093908 -114.026891  L 192.116401 -109.514106  L 196.138894 -108.488592  L 200.161387 -111.941265  L 204.18388 -106.818791  L 208.206373 -109.327183  L 212.228866 -106.680059  L 216.251359 -106.328676  L 220.273852 -103.169237  L 224.296345 -105.181747  L 228.318838 -103.248086  L 232.341331 -105.02741  L 236.363824 -104.130125  L 240.386317 -106.905302  L 244.40881 -105.711904  L 248.431303 -103.438907  L 252.453796 -103.317448  L 256.476289 -102.381313  L 260.498782 -99.554061  L 264.521275 -99.527722  L 268.543768 -102.088056  L 272.566261 -99.600155  L 276.588754 -101.769706  L 280.611246 -101.555178  L 284.633739 -100.04278  L 288.656232 -103.13948  L 292.678725 -102.155191  L 296.701218 -99.376141  L 300.723711 -99.362163  L 304.746204 -99.938411  L 308.768697 -97.78202  L 312.79119 -97.270975  L 316.813683 -96.119509  L 320.836176 -96.341384  L 324.858669 -97.654201  L 328.881162 -95.392899  L 332.903655 -92.721053  L 336.926148 -94.042884  L 340.948641 -93.58034  L 344.971134 -91.55589  L 348.993627 -92.283211  L 353.01612 -91.333917  L 357.038613 -92.704786  L 361.061106 -91.270216  L 365.083599 -94.247803  L 369.106092 -92.749365  L 373.128585 -91.500268  L 377.151078 -92.70241  L 381.173571 -92.051621  L 385.196064 -91.183796  L 389.218557 -91.616588  L 393.24105 -94.617301  L 397.263543 -92.605621  L 401.286036 -90.929056  L 405.308529 -91.75943  L 409.331022 -92.117613  L 413.353515 -92.122073  L 417.376007 -90.338819  L 421.3985 -92.945319  L 425.420993 -92.121049  L 429.443486 -90.222637  L 433.465979 -90.93675  L 437.488472 -90.769284  L 441.510965 -91.066165  L 445.533458 -91.564571  L 449.555951 -89.270854  L 453.578444 -92.094324  L 457.600937 -88.811537  L 461.62343 -93.202837  L 465.645923 -90.809517  L 469.668416 -89.184743  L 473.690909 -90.106803  L 473.690909 -113.137491  L 473.690909 -113.137491  L 469.668416 -111.576839  L 465.645923 -113.279285  L 461.62343 -114.565721  L 457.600937 -110.519422  L 453.578444 -114.281425  L 449.555951 -111.855867  L 445.533458 -114.796605  L 441.510965 -112.124954  L 437.488472 -114.363731  L 433.465979 -114.651213  L 429.443486 -113.41949  L 425.420993 -116.428207  L 421.3985 -116.003739  L 417.376007 -114.727628  L 413.353515 -115.986022  L 409.331022 -116.039718  L 405.308529 -116.077666  L 401.286036 -112.799727  L 397.263543 -115.803803  L 393.24105 -119.313332  L 389.218557 -116.568316  L 385.196064 -116.257437  L 381.173571 -116.954157  L 377.151078 -118.318923  L 373.128585 -116.835104  L 369.106092 -118.601263  L 365.083599 -120.115719  L 361.061106 -115.581751  L 357.038613 -119.001135  L 353.01612 -116.129373  L 348.993627 -117.12237  L 344.971134 -116.67313  L 340.948641 -116.871029  L 336.926148 -117.481451  L 332.903655 -117.151686  L 328.881162 -119.648909  L 324.858669 -121.794885  L 320.836176 -120.898351  L 316.813683 -120.297382  L 312.79119 -122.057973  L 308.768697 -121.97706  L 304.746204 -124.316966  L 300.723711 -123.862395  L 296.701218 -122.654525  L 292.678725 -126.54646  L 288.656232 -127.027062  L 284.633739 -125.836622  L 280.611246 -128.60388  L 276.588754 -128.074237  L 272.566261 -121.829429  L 268.543768 -125.544173  L 264.521275 -122.823179  L 260.498782 -122.559323  L 256.476289 -126.490106  L 252.453796 -128.525112  L 248.431303 -129.989076  L 244.40881 -132.024096  L 240.386317 -134.541571  L 236.363824 -129.748079  L 232.341331 -132.471859  L 228.318838 -130.736469  L 224.296345 -128.45815  L 220.273852 -128.136052  L 216.251359 -132.375514  L 212.228866 -132.846188  L 208.206373 -137.1958  L 204.18388 -135.899965  L 200.161387 -140.312873  L 196.138894 -136.729421  L 192.116401 -134.758561  L 188.093908 -139.985983  L 184.071415 -142.310036  L 180.048922 -136.81362  L 176.026429 -139.312236  L 172.003936 -140.17849  L 167.981443 -139.220182  L 163.95895 -140.253004  L 159.936457 -144.142184  L 155.913964 -154.012321  L 151.891471 -151.031899  L 147.868978 -154.760129  L 143.846485 -156.731319  L 139.823993 -151.910711  L 135.8015 -156.298301  L 131.779007 -164.349366  L 127.756514 -178.352425  L 123.734021 -191.386378  L 119.711528 -191.326525  L 115.689035 -193.342144  L 111.666542 -198.042356  L 107.644049 -200.860746  L 103.621556 -195.427736  L 99.599063 -201.473162  L 95.57657 -199.242625  L 91.554077 -198.679277  L 87.531584 -199.007058  L 83.509091 -219.541715  z "
             id="m961c08b0e0"
             style="stroke:#984ea3;stroke-opacity:0.2;" />
        </defs>
        <g
           clip-path="url(#p54be13fe48)"
           id="g66688">
          <use
             style="fill:#984ea3;fill-opacity:0.2;stroke:#984ea3;stroke-opacity:0.2;"
             x="0"
             xlink:href="#m961c08b0e0"
             y="302.4"
             id="use66686" />
        </g>
      </g>
      <g
         id="PolyCollection_5">
        <defs
           id="defs66692">
          <path
             d="M 83.509091 -219.711216  L 83.509091 -212.251066  L 87.531584 -192.441935  L 91.554077 -190.559993  L 95.57657 -190.224593  L 99.599063 -193.036691  L 103.621556 -188.612562  L 107.644049 -192.971387  L 111.666542 -190.17737  L 115.689035 -187.010726  L 119.711528 -186.968542  L 123.734021 -191.788522  L 127.756514 -189.268913  L 131.779007 -189.617875  L 135.8015 -182.271641  L 139.823993 -184.177072  L 143.846485 -182.439694  L 147.868978 -172.028278  L 151.891471 -161.079667  L 155.913964 -146.821635  L 159.936457 -126.081368  L 163.95895 -119.06007  L 167.981443 -112.691739  L 172.003936 -106.883385  L 176.026429 -103.82288  L 180.048922 -106.549586  L 184.071415 -97.858089  L 188.093908 -96.334051  L 192.116401 -95.512717  L 196.138894 -93.138681  L 200.161387 -99.782455  L 204.18388 -97.023015  L 208.206373 -97.888619  L 212.228866 -88.09405  L 216.251359 -85.211539  L 220.273852 -87.944174  L 224.296345 -82.701615  L 228.318838 -82.316244  L 232.341331 -82.046419  L 236.363824 -80.639964  L 240.386317 -75.30359  L 244.40881 -76.063848  L 248.431303 -78.042388  L 252.453796 -74.608036  L 256.476289 -76.578883  L 260.498782 -75.118883  L 264.521275 -73.970112  L 268.543768 -74.688483  L 272.566261 -72.240948  L 276.588754 -73.296524  L 280.611246 -72.875032  L 284.633739 -71.910379  L 288.656232 -72.959003  L 292.678725 -72.39018  L 296.701218 -72.099893  L 300.723711 -71.047643  L 304.746204 -70.953831  L 308.768697 -71.199338  L 312.79119 -69.908014  L 316.813683 -69.154472  L 320.836176 -68.907424  L 324.858669 -69.316471  L 328.881162 -67.04419  L 332.903655 -66.703917  L 336.926148 -66.531829  L 340.948641 -64.987101  L 344.971134 -65.1166  L 348.993627 -66.813351  L 353.01612 -64.715987  L 357.038613 -65.449452  L 361.061106 -63.558096  L 365.083599 -66.482567  L 369.106092 -64.102577  L 373.128585 -64.141602  L 377.151078 -63.25749  L 381.173571 -65.436066  L 385.196064 -64.63986  L 389.218557 -63.946575  L 393.24105 -63.754609  L 397.263543 -63.126822  L 401.286036 -63.418127  L 405.308529 -63.830198  L 409.331022 -61.527273  L 413.353515 -63.272279  L 417.376007 -62.172482  L 421.3985 -62.845691  L 425.420993 -63.654762  L 429.443486 -62.801051  L 433.465979 -62.735373  L 437.488472 -62.999734  L 441.510965 -62.396219  L 445.533458 -62.872161  L 449.555951 -63.342971  L 453.578444 -63.643968  L 457.600937 -62.605279  L 461.62343 -63.197646  L 465.645923 -63.768664  L 469.668416 -63.226328  L 473.690909 -63.224014  L 473.690909 -70.26523  L 473.690909 -70.26523  L 469.668416 -69.856024  L 465.645923 -70.85145  L 461.62343 -70.538964  L 457.600937 -70.573183  L 453.578444 -72.302386  L 449.555951 -69.683449  L 445.533458 -70.391777  L 441.510965 -68.394459  L 437.488472 -70.876708  L 433.465979 -70.564408  L 429.443486 -68.991693  L 425.420993 -71.95954  L 421.3985 -69.541438  L 417.376007 -69.751429  L 413.353515 -69.903032  L 409.331022 -68.338936  L 405.308529 -72.092916  L 401.286036 -70.304696  L 397.263543 -69.927563  L 393.24105 -70.689828  L 389.218557 -70.100423  L 385.196064 -71.695267  L 381.173571 -72.790539  L 377.151078 -71.374441  L 373.128585 -71.626712  L 369.106092 -72.346386  L 365.083599 -74.7526  L 361.061106 -69.485261  L 357.038613 -74.329882  L 353.01612 -72.350207  L 348.993627 -74.662879  L 344.971134 -74.335803  L 340.948641 -71.74901  L 336.926148 -75.288663  L 332.903655 -74.788462  L 328.881162 -76.405841  L 324.858669 -79.718581  L 320.836176 -79.23664  L 316.813683 -80.951183  L 312.79119 -79.682822  L 308.768697 -80.964806  L 304.746204 -81.640839  L 300.723711 -84.39094  L 296.701218 -85.410966  L 292.678725 -84.068982  L 288.656232 -84.409661  L 284.633739 -85.208555  L 280.611246 -87.181169  L 276.588754 -85.534667  L 272.566261 -83.490299  L 268.543768 -84.290812  L 264.521275 -83.481663  L 260.498782 -88.015204  L 256.476289 -87.808968  L 252.453796 -87.787106  L 248.431303 -92.528414  L 244.40881 -87.018639  L 240.386317 -87.016318  L 236.363824 -94.47007  L 232.341331 -96.514913  L 228.318838 -98.704955  L 224.296345 -99.032138  L 220.273852 -107.412397  L 216.251359 -107.330266  L 212.228866 -109.437602  L 208.206373 -119.607935  L 204.18388 -122.1984  L 200.161387 -123.729645  L 196.138894 -119.395205  L 192.116401 -118.352136  L 188.093908 -119.114649  L 184.071415 -122.49065  L 180.048922 -128.932948  L 176.026429 -127.22244  L 172.003936 -133.806424  L 167.981443 -139.249253  L 163.95895 -140.709956  L 159.936457 -152.776752  L 155.913964 -169.183823  L 151.891471 -176.370157  L 147.868978 -184.992161  L 143.846485 -193.247767  L 139.823993 -192.934315  L 135.8015 -195.104048  L 131.779007 -198.082165  L 127.756514 -196.2139  L 123.734021 -198.997282  L 119.711528 -195.091726  L 115.689035 -195.531274  L 111.666542 -197.816121  L 107.644049 -200.52677  L 103.621556 -195.005557  L 99.599063 -201.081062  L 95.57657 -198.830836  L 91.554077 -198.193714  L 87.531584 -198.645986  L 83.509091 -219.711216  z "
             id="md8975526db"
             style="stroke:#ff7f00;stroke-opacity:0.2;" />
        </defs>
        <g
           clip-path="url(#p54be13fe48)"
           id="g66696">
          <use
             style="fill:#ff7f00;fill-opacity:0.2;stroke:#ff7f00;stroke-opacity:0.2;"
             x="0"
             xlink:href="#md8975526db"
             y="302.4"
             id="use66694" />
        </g>
      </g>
      <g
         id="line2d_1">
        <path
           clip-path="url(#p54be13fe48)"
           d="M 83.509091 89.040104  L 87.531584 112.015481  L 91.554077 112.411833  L 95.57657 111.845774  L 99.599063 114.939597  L 103.621556 106.510556  L 107.644049 113.464044  L 111.666542 115.402957  L 115.689035 115.362547  L 119.711528 121.498756  L 123.734021 110.202706  L 127.756514 113.570623  L 131.779007 112.745351  L 135.8015 114.570769  L 139.823993 117.540273  L 143.846485 115.727308  L 147.868978 115.958679  L 151.891471 114.021831  L 155.913964 114.765477  L 159.936457 113.69329  L 163.95895 117.55082  L 167.981443 111.621757  L 172.003936 118.31713  L 176.026429 110.189133  L 180.048922 117.965671  L 184.071415 109.714959  L 188.093908 111.028523  L 192.116401 113.001423  L 196.138894 114.448488  L 200.161387 112.632406  L 204.18388 118.482989  L 208.206373 114.906467  L 212.228866 112.592114  L 216.251359 116.225958  L 220.273852 113.08017  L 224.296345 112.058297  L 228.318838 115.885372  L 232.341331 114.544401  L 236.363824 117.011924  L 240.386317 115.112337  L 244.40881 113.113014  L 248.431303 113.3596  L 252.453796 109.290514  L 256.476289 115.745993  L 260.498782 112.668737  L 264.521275 114.615954  L 268.543768 116.0298  L 272.566261 114.602126  L 276.588754 112.889462  L 280.611246 115.008953  L 284.633739 119.082303  L 288.656232 113.9851  L 292.678725 117.533847  L 296.701218 115.931758  L 300.723711 115.738132  L 304.746204 113.412866  L 308.768697 118.018473  L 312.79119 122.304977  L 316.813683 117.730797  L 320.836176 121.253385  L 324.858669 123.115747  L 328.881162 129.685049  L 332.903655 126.723539  L 336.926148 128.590806  L 340.948641 128.15663  L 344.971134 128.648842  L 348.993627 130.577363  L 353.01612 135.784574  L 357.038613 137.546552  L 361.061106 135.334543  L 365.083599 140.893628  L 369.106092 136.140028  L 373.128585 139.204585  L 377.151078 131.524374  L 381.173571 137.811941  L 385.196064 137.541426  L 389.218557 143.71295  L 393.24105 138.117039  L 397.263543 142.589128  L 401.286036 152.367572  L 405.308529 151.03039  L 409.331022 152.097653  L 413.353515 143.383581  L 417.376007 147.276012  L 421.3985 148.810532  L 425.420993 145.009275  L 429.443486 154.306044  L 433.465979 156.540242  L 437.488472 157.397834  L 441.510965 158.175582  L 445.533458 155.55381  L 449.555951 163.388151  L 453.578444 164.897054  L 457.600937 157.645458  L 461.62343 164.341401  L 465.645923 157.993925  L 469.668416 161.512738  L 473.690909 171.344944  "
           style="fill:none;stroke:#e41a1c;stroke-linecap:round;"
           id="path66699" />
      </g>
      <g
         id="line2d_2">
        <path
           clip-path="url(#p54be13fe48)"
           d="M 83.509091 85.562408  L 87.531584 105.083428  L 91.554077 106.76249  L 95.57657 106.429828  L 99.599063 104.360275  L 103.621556 109.162019  L 107.644049 104.412197  L 111.666542 107.534701  L 115.689035 110.20351  L 119.711528 110.072093  L 123.734021 107.415816  L 127.756514 106.753896  L 131.779007 105.130158  L 135.8015 107.092465  L 139.823993 108.12196  L 143.846485 106.191523  L 147.868978 107.506412  L 151.891471 108.176748  L 155.913964 104.209521  L 159.936457 107.945962  L 163.95895 108.311925  L 167.981443 109.42002  L 172.003936 107.508381  L 176.026429 106.249353  L 180.048922 110.937227  L 184.071415 107.85089  L 188.093908 107.717324  L 192.116401 108.792833  L 196.138894 105.203207  L 200.161387 107.623148  L 204.18388 108.284352  L 208.206373 107.025503  L 212.228866 104.491513  L 216.251359 105.918483  L 220.273852 106.712  L 224.296345 109.536039  L 228.318838 107.342409  L 232.341331 106.366268  L 236.363824 105.843285  L 240.386317 107.383589  L 244.40881 104.72946  L 248.431303 107.034814  L 252.453796 106.0012  L 256.476289 106.82981  L 260.498782 108.545038  L 264.521275 112.140214  L 268.543768 108.5035  L 272.566261 108.876983  L 276.588754 108.180686  L 280.611246 102.948523  L 284.633739 108.633664  L 288.656232 107.583758  L 292.678725 107.401135  L 296.701218 112.634193  L 300.723711 110.686388  L 304.746204 110.584155  L 308.768697 114.678502  L 312.79119 114.018193  L 316.813683 117.269428  L 320.836176 113.960362  L 324.858669 113.943353  L 328.881162 117.48607  L 332.903655 121.189925  L 336.926148 120.01075  L 340.948641 120.61108  L 344.971134 118.104841  L 348.993627 117.346416  L 353.01612 126.083518  L 357.038613 122.664341  L 361.061106 123.710308  L 365.083599 123.895438  L 369.106092 128.290398  L 373.128585 124.293629  L 377.151078 129.527404  L 381.173571 127.822918  L 385.196064 131.240484  L 389.218557 134.533257  L 393.24105 133.275661  L 397.263543 135.456759  L 401.286036 135.096346  L 405.308529 143.263376  L 409.331022 140.926333  L 413.353515 139.999608  L 417.376007 140.079282  L 421.3985 140.859012  L 425.420993 144.242202  L 429.443486 142.476842  L 433.465979 142.492777  L 437.488472 141.757986  L 441.510965 141.932015  L 445.533458 144.278369  L 449.555951 150.296171  L 453.578444 152.396699  L 457.600937 147.333911  L 461.62343 151.9926  L 465.645923 146.550062  L 469.668416 153.230859  L 473.690909 151.547321  "
           style="fill:none;stroke:#377eb8;stroke-linecap:round;"
           id="path66702" />
      </g>
      <g
         id="line2d_3">
        <path
           clip-path="url(#p54be13fe48)"
           d="M 83.509091 24.023912  L 87.531584 38.071938  L 91.554077 39.967158  L 95.57657 40.17474  L 99.599063 36.246043  L 103.621556 50.991655  L 107.644049 56.62867  L 111.666542 64.390938  L 115.689035 75.110955  L 119.711528 82.99927  L 123.734021 89.192856  L 127.756514 97.741927  L 131.779007 96.278809  L 135.8015 106.066085  L 139.823993 110.430429  L 143.846485 118.625587  L 147.868978 120.977527  L 151.891471 128.109171  L 155.913964 128.296074  L 159.936457 137.176016  L 163.95895 135.688082  L 167.981443 138.922935  L 172.003936 139.87281  L 176.026429 137.585468  L 180.048922 146.966837  L 184.071415 147.235079  L 188.093908 147.761715  L 192.116401 148.860088  L 196.138894 149.139359  L 200.161387 148.630842  L 204.18388 150.344674  L 208.206373 150.206614  L 212.228866 153.319163  L 216.251359 150.183374  L 220.273852 150.368504  L 224.296345 156.368098  L 228.318838 157.169081  L 232.341331 159.029835  L 236.363824 160.24165  L 240.386317 159.52949  L 244.40881 159.05209  L 248.431303 161.153514  L 252.453796 159.746131  L 256.476289 162.810822  L 260.498782 165.191319  L 264.521275 162.446076  L 268.543768 163.098562  L 272.566261 165.887527  L 276.588754 167.823121  L 280.611246 168.107906  L 284.633739 169.694707  L 288.656232 170.725724  L 292.678725 170.683972  L 296.701218 175.641913  L 300.723711 173.850878  L 304.746204 177.108577  L 308.768697 178.653428  L 312.79119 179.464653  L 316.813683 183.003789  L 320.836176 180.067901  L 324.858669 179.961747  L 328.881162 184.616784  L 332.903655 184.154943  L 336.926148 185.037265  L 340.948641 187.756117  L 344.971134 188.187628  L 348.993627 188.783983  L 353.01612 190.055473  L 357.038613 187.974728  L 361.061106 189.87566  L 365.083599 189.225538  L 369.106092 191.59993  L 373.128585 193.589488  L 377.151078 194.1693  L 381.173571 194.544483  L 385.196064 195.190075  L 389.218557 195.070135  L 393.24105 197.289332  L 397.263543 197.71848  L 401.286036 198.186426  L 405.308529 198.622466  L 409.331022 200.213009  L 413.353515 200.301438  L 417.376007 198.295928  L 421.3985 199.032903  L 425.420993 202.568691  L 429.443486 200.780807  L 433.465979 200.629749  L 437.488472 202.853673  L 441.510965 202.921817  L 445.533458 202.728612  L 449.555951 204.129889  L 453.578444 203.205421  L 457.600937 201.749786  L 461.62343 202.68489  L 465.645923 203.056529  L 469.668416 202.397938  L 473.690909 202.386909  "
           style="fill:none;stroke:#4daf4a;stroke-linecap:round;"
           id="path66705" />
      </g>
      <g
         id="line2d_4">
        <path
           clip-path="url(#p54be13fe48)"
           d="M 83.509091 86.580946  L 87.531584 106.512761  L 91.554077 107.572729  L 95.57657 107.459288  L 99.599063 104.938367  L 103.621556 110.210045  L 107.644049 105.309415  L 111.666542 108.272285  L 115.689035 114.433178  L 119.711528 117.848434  L 123.734021 120.606479  L 127.756514 136.325796  L 131.779007 151.787507  L 135.8015 158.98375  L 139.823993 163.05543  L 143.846485 158.40512  L 147.868978 160.94219  L 151.891471 165.096785  L 155.913964 162.88901  L 159.936457 172.069493  L 163.95895 175.129457  L 167.981443 176.856682  L 172.003936 176.395235  L 176.026429 177.300206  L 180.048922 177.615518  L 184.071415 173.255507  L 188.093908 175.393563  L 192.116401 180.263666  L 196.138894 179.790994  L 200.161387 176.272931  L 204.18388 181.040622  L 208.206373 179.138509  L 212.228866 182.636876  L 216.251359 183.047905  L 220.273852 186.747355  L 224.296345 185.580051  L 228.318838 185.407722  L 232.341331 183.650365  L 236.363824 185.460898  L 240.386317 181.676563  L 244.40881 183.532  L 248.431303 185.686008  L 252.453796 186.47872  L 256.476289 187.96429  L 260.498782 191.343308  L 264.521275 191.224549  L 268.543768 188.583885  L 272.566261 191.685208  L 276.588754 187.478028  L 280.611246 187.320471  L 284.633739 189.460299  L 288.656232 187.316729  L 292.678725 188.049174  L 296.701218 191.384667  L 300.723711 190.787721  L 304.746204 190.272311  L 308.768697 192.52046  L 312.79119 192.735526  L 316.813683 194.191555  L 320.836176 193.780132  L 324.858669 192.675457  L 328.881162 194.879096  L 332.903655 197.46363  L 336.926148 196.637832  L 340.948641 197.174315  L 344.971134 198.28549  L 348.993627 197.697209  L 353.01612 198.668355  L 357.038613 196.54704  L 361.061106 198.974016  L 365.083599 195.218239  L 369.106092 196.724686  L 373.128585 198.232314  L 377.151078 196.889333  L 381.173571 197.897111  L 385.196064 198.679384  L 389.218557 198.307548  L 393.24105 195.434683  L 397.263543 198.195288  L 401.286036 200.535608  L 405.308529 198.481452  L 409.331022 198.321334  L 413.353515 198.345953  L 417.376007 199.866777  L 421.3985 197.925471  L 425.420993 198.125372  L 429.443486 200.578937  L 433.465979 199.606019  L 437.488472 199.833493  L 441.510965 200.804441  L 445.533458 199.219412  L 449.555951 201.83664  L 453.578444 199.212125  L 457.600937 202.734521  L 461.62343 198.515721  L 465.645923 200.355599  L 469.668416 202.019209  L 473.690909 200.777853  "
           style="fill:none;stroke:#984ea3;stroke-linecap:round;"
           id="path66708" />
      </g>
      <g
         id="line2d_5">
        <path
           clip-path="url(#p54be13fe48)"
           d="M 83.509091 86.418859  L 87.531584 106.856039  L 91.554077 108.023147  L 95.57657 107.872285  L 99.599063 105.341124  L 103.621556 110.590941  L 107.644049 105.650921  L 111.666542 108.403254  L 115.689035 111.129  L 119.711528 111.369866  L 123.734021 107.007098  L 127.756514 109.658594  L 131.779007 108.54998  L 135.8015 113.712155  L 139.823993 113.844307  L 143.846485 114.55627  L 147.868978 123.889781  L 151.891471 133.675088  L 155.913964 144.397271  L 159.936457 162.97094  L 163.95895 172.514987  L 167.981443 176.429504  L 172.003936 182.055095  L 176.026429 186.87734  L 180.048922 184.658733  L 184.071415 192.225631  L 188.093908 194.67565  L 192.116401 195.467574  L 196.138894 196.133057  L 200.161387 190.64395  L 204.18388 192.789293  L 208.206373 193.651723  L 212.228866 203.634174  L 216.251359 206.129097  L 220.273852 204.721715  L 224.296345 211.533124  L 228.318838 211.889401  L 232.341331 213.119334  L 236.363824 214.844983  L 240.386317 221.240046  L 244.40881 220.858757  L 248.431303 217.114599  L 252.453796 221.202429  L 256.476289 220.206075  L 260.498782 220.832957  L 264.521275 223.674113  L 268.543768 222.910353  L 272.566261 224.534377  L 276.588754 222.984405  L 280.611246 222.3719  L 284.633739 223.840533  L 288.656232 223.715668  L 292.678725 224.170419  L 296.701218 223.644571  L 300.723711 224.680708  L 304.746204 226.102665  L 308.768697 226.317928  L 312.79119 227.604582  L 316.813683 227.347172  L 320.836176 228.327968  L 324.858669 227.882474  L 328.881162 230.674984  L 332.903655 231.65381  L 336.926148 231.489754  L 340.948641 234.031944  L 344.971134 232.673799  L 348.993627 231.661885  L 353.01612 233.866903  L 357.038613 232.510333  L 361.061106 235.878322  L 365.083599 231.782417  L 369.106092 234.175519  L 373.128585 234.515843  L 377.151078 235.084035  L 381.173571 233.286697  L 385.196064 234.232436  L 389.218557 235.376501  L 393.24105 235.177781  L 397.263543 235.872807  L 401.286036 235.538588  L 405.308529 234.438443  L 409.331022 237.466895  L 413.353515 235.812344  L 417.376007 236.438045  L 421.3985 236.206435  L 425.420993 234.592849  L 429.443486 236.503628  L 433.465979 235.750109  L 437.488472 235.461779  L 441.510965 237.004661  L 445.533458 235.768031  L 449.555951 235.88679  L 453.578444 234.426823  L 457.600937 235.810769  L 461.62343 235.531695  L 465.645923 235.089943  L 469.668416 235.858824  L 473.690909 235.655378  "
           style="fill:none;stroke:#ff7f00;stroke-linecap:round;"
           id="path66711" />
      </g>
      <g
         id="patch_3">
        <path
           d="M 64 252  L 64 7.2  "
           style="fill:none;stroke:#000000;stroke-linecap:square;stroke-linejoin:miter;stroke-width:1.25;"
           id="path66714" />
      </g>
      <g
         id="patch_4">
        <path
           d="M 64 252  L 493.2 252  "
           style="fill:none;stroke:#000000;stroke-linecap:square;stroke-linejoin:miter;stroke-width:1.25;"
           id="path66717" />
      </g>
      <g
         id="matplotlib.axis_1">
        <g
           id="xtick_1">
          <g
             id="text_1">
            <!-- 0 -->
            <g
               transform="translate(77.900094 272.4275)scale(0.16 -0.16)"
               id="g66725">
              <defs
                 id="defs66721">
                <path
                   d="M 3046 2112  Q 3046 1683 2963 1302  Q 2880 922 2717 602  Q 2554 282 2266 96  Q 1978 -90 1600 -90  Q 1210 -90 915 108  Q 621 307 461 640  Q 301 973 227 1350  Q 154 1728 154 2150  Q 154 2746 301 3222  Q 448 3699 790 4012  Q 1133 4326 1626 4326  Q 2253 4326 2649 3712  Q 3046 3098 3046 2112  z M 2432 2080  Q 2432 3091 2217 3625  Q 2003 4160 1587 4160  Q 1190 4160 979 3622  Q 768 3085 768 2106  Q 768 1120 979 598  Q 1190 77 1600 77  Q 2003 77 2217 598  Q 2432 1120 2432 2080  z "
                   id="STIXGeneral-Regular-30"
                   transform="scale(0.015625)" />
              </defs>
              <use
                 xlink:href="#STIXGeneral-Regular-30"
                 id="use66723" />
            </g>
          </g>
        </g>
        <g
           id="xtick_2">
          <g
             id="text_2">
            <!-- 1 -->
            <g
               transform="translate(158.349953 272.4275)scale(0.16 -0.16)"
               id="g66734">
              <defs
                 id="defs66730">
                <path
                   d="M 2522 0  L 755 0  L 755 96  Q 1107 115 1235 227  Q 1363 339 1363 608  L 1363 3482  Q 1363 3795 1171 3795  Q 1082 3795 883 3718  L 710 3654  L 710 3744  L 1856 4326  L 1914 4307  L 1914 486  Q 1914 275 2042 185  Q 2170 96 2522 96  L 2522 0  z "
                   id="STIXGeneral-Regular-31"
                   transform="scale(0.015625)" />
              </defs>
              <use
                 xlink:href="#STIXGeneral-Regular-31"
                 id="use66732" />
            </g>
          </g>
        </g>
        <g
           id="xtick_3">
          <g
             id="text_3">
            <!-- 2 -->
            <g
               transform="translate(238.799813 272.4275)scale(0.16 -0.16)"
               id="g66743">
              <defs
                 id="defs66739">
                <path
                   d="M 3034 877  L 2688 0  L 186 0  L 186 77  L 1325 1286  Q 1773 1754 1965 2144  Q 2157 2534 2157 2950  Q 2157 3379 1920 3616  Q 1683 3853 1267 3853  Q 922 3853 720 3673  Q 518 3494 326 3021  L 192 3053  Q 301 3648 630 3987  Q 960 4326 1523 4326  Q 2054 4326 2380 4006  Q 2707 3686 2707 3200  Q 2707 2477 1888 1613  L 832 486  L 2330 486  Q 2541 486 2665 569  Q 2790 653 2944 915  L 3034 877  z "
                   id="STIXGeneral-Regular-32"
                   transform="scale(0.015625)" />
              </defs>
              <use
                 xlink:href="#STIXGeneral-Regular-32"
                 id="use66741" />
            </g>
          </g>
        </g>
        <g
           id="xtick_4">
          <g
             id="text_4">
            <!-- 3 -->
            <g
               transform="translate(319.249672 272.4275)scale(0.16 -0.16)"
               id="g66752">
              <defs
                 id="defs66748">
                <path
                   d="M 390 3264  L 288 3290  Q 435 3770 748 4048  Q 1062 4326 1542 4326  Q 1990 4326 2265 4083  Q 2541 3840 2541 3450  Q 2541 2925 1946 2566  Q 2298 2413 2477 2227  Q 2758 1914 2758 1402  Q 2758 890 2464 506  Q 2246 211 1840 60  Q 1434 -90 979 -90  Q 262 -90 262 275  Q 262 378 339 442  Q 416 506 525 506  Q 685 506 915 339  Q 1197 141 1466 141  Q 1818 141 2058 425  Q 2298 710 2298 1120  Q 2298 1856 1632 2048  Q 1434 2112 979 2112  L 979 2202  Q 1338 2323 1517 2432  Q 2035 2726 2035 3290  Q 2035 3610 1852 3776  Q 1670 3942 1344 3942  Q 768 3942 390 3264  z "
                   id="STIXGeneral-Regular-33"
                   transform="scale(0.015625)" />
              </defs>
              <use
                 xlink:href="#STIXGeneral-Regular-33"
                 id="use66750" />
            </g>
          </g>
        </g>
        <g
           id="xtick_5">
          <g
             id="text_5">
            <!-- 4 -->
            <g
               transform="translate(399.699531 272.4275)scale(0.16 -0.16)"
               id="g66761">
              <defs
                 id="defs66757">
                <path
                   d="M 3027 1069  L 2368 1069  L 2368 0  L 1869 0  L 1869 1069  L 77 1069  L 77 1478  L 2086 4326  L 2368 4326  L 2368 1478  L 3027 1478  L 3027 1069  z M 1869 1478  L 1869 3674  L 333 1478  L 1869 1478  z "
                   id="STIXGeneral-Regular-34"
                   transform="scale(0.015625)" />
              </defs>
              <use
                 xlink:href="#STIXGeneral-Regular-34"
                 id="use66759" />
            </g>
          </g>
        </g>
        <g
           id="xtick_6">
          <g
             id="text_6">
            <!-- 5 -->
            <g
               transform="translate(480.149391 272.4275)scale(0.16 -0.16)"
               id="g66770">
              <defs
                 id="defs66766">
                <path
                   d="M 2803 4358  L 2573 3814  Q 2534 3731 2400 3731  L 1158 3731  L 902 3187  Q 1606 3053 1920 2896  Q 2234 2739 2502 2368  Q 2726 2061 2726 1555  Q 2726 1094 2576 780  Q 2426 467 2099 224  Q 1664 -90 1011 -90  Q 646 -90 422 19  Q 198 128 198 307  Q 198 550 486 550  Q 717 550 960 352  Q 1210 147 1414 147  Q 1747 147 2012 480  Q 2278 813 2278 1229  Q 2278 1843 1850 2189  Q 1293 2637 486 2637  Q 410 2637 410 2688  L 416 2720  L 1114 4237  L 2438 4237  Q 2547 4237 2608 4269  Q 2669 4301 2746 4403  L 2803 4358  z "
                   id="STIXGeneral-Regular-35"
                   transform="scale(0.015625)" />
              </defs>
              <use
                 xlink:href="#STIXGeneral-Regular-35"
                 id="use66768" />
            </g>
          </g>
        </g>
        <g
           id="text_7">
          <!-- Timesteps -->
          <g
             transform="translate(243.655703 291.510469)scale(0.17 -0.17)"
             id="g66801">
            <defs
               id="defs66781">
              <path
                 d="M 3795 3149  L 3642 3149  Q 3539 3674 3353 3821  Q 3168 3968 2656 3968  L 2278 3968  L 2278 710  Q 2278 346 2387 243  Q 2496 141 2893 122  L 2893 0  L 1024 0  L 1024 122  Q 1427 147 1526 256  Q 1626 365 1626 787  L 1626 3968  L 1242 3968  Q 723 3968 540 3817  Q 358 3667 262 3149  L 109 3149  L 154 4237  L 3750 4237  L 3795 3149  z "
                 id="STIXGeneral-Regular-54"
                 transform="scale(0.015625)" />
              <path
                 d="M 1152 4045  Q 1152 3904 1056 3811  Q 960 3718 819 3718  Q 685 3718 592 3811  Q 499 3904 499 4045  Q 499 4179 595 4275  Q 691 4371 826 4371  Q 966 4371 1059 4275  Q 1152 4179 1152 4045  z M 1619 0  L 102 0  L 102 96  Q 435 115 521 211  Q 608 307 608 666  L 608 2118  Q 608 2342 563 2432  Q 518 2522 397 2522  Q 243 2522 128 2490  L 128 2592  L 1120 2944  L 1146 2918  L 1146 672  Q 1146 314 1226 218  Q 1306 122 1619 96  L 1619 0  z "
                 id="STIXGeneral-Regular-69"
                 transform="scale(0.015625)" />
              <path
                 d="M 4960 0  L 3565 0  L 3565 96  Q 3834 122 3907 208  Q 3981 294 3981 576  L 3981 1894  Q 3981 2278 3869 2444  Q 3757 2611 3488 2611  Q 3264 2611 3107 2521  Q 2950 2432 2803 2221  L 2803 608  Q 2803 301 2896 201  Q 2989 102 3264 96  L 3264 0  L 1830 0  L 1830 96  Q 2112 115 2189 188  Q 2266 262 2266 550  L 2266 1901  Q 2266 2611 1850 2611  Q 1670 2611 1468 2531  Q 1267 2451 1171 2336  Q 1088 2240 1088 2227  L 1088 448  Q 1088 243 1177 176  Q 1267 109 1523 96  L 1523 0  L 102 0  L 102 96  Q 371 102 460 195  Q 550 288 550 563  L 550 2150  Q 550 2387 499 2480  Q 448 2573 326 2573  Q 230 2573 122 2547  L 122 2656  Q 557 2778 1011 2944  L 1062 2925  L 1062 2451  L 1075 2451  Q 1363 2752 1584 2848  Q 1805 2944 2054 2944  Q 2560 2944 2733 2406  Q 3232 2944 3776 2944  Q 4518 2944 4518 1792  L 4518 493  Q 4518 282 4582 202  Q 4646 122 4794 109  L 4960 96  L 4960 0  z "
                 id="STIXGeneral-Regular-6d"
                 transform="scale(0.015625)" />
              <path
                 d="M 2611 1050  L 2714 1005  Q 2330 -64 1376 -64  Q 813 -64 486 329  Q 160 723 160 1389  Q 160 2074 525 2509  Q 890 2944 1485 2944  Q 2061 2944 2374 2502  Q 2560 2246 2592 1773  L 621 1773  Q 646 1370 700 1158  Q 755 947 915 730  Q 1184 378 1626 378  Q 1939 378 2153 531  Q 2368 685 2611 1050  z M 634 1978  L 1939 1978  Q 1882 2381 1750 2547  Q 1619 2714 1312 2714  Q 1043 2714 864 2525  Q 685 2336 634 1978  z "
                 id="STIXGeneral-Regular-65"
                 transform="scale(0.015625)" />
              <path
                 d="M 998 1926  L 1664 1523  Q 1984 1331 2105 1164  Q 2227 998 2227 736  Q 2227 416 1961 176  Q 1696 -64 1331 -64  Q 1030 -64 864 -6  Q 691 51 570 51  Q 461 51 416 -26  L 333 -26  L 333 979  L 435 979  Q 538 512 730 294  Q 922 77 1248 77  Q 1485 77 1632 211  Q 1779 346 1779 550  Q 1779 845 1440 1030  L 1094 1222  Q 326 1651 326 2150  Q 326 2522 566 2730  Q 806 2938 1210 2938  Q 1491 2938 1638 2867  Q 1754 2816 1818 2816  Q 1862 2816 1920 2880  L 1990 2880  L 2022 2010  L 1926 2010  Q 1818 2445 1654 2621  Q 1491 2797 1203 2797  Q 986 2797 854 2688  Q 723 2579 723 2362  Q 723 2253 796 2128  Q 870 2003 998 1926  z "
                 id="STIXGeneral-Regular-73"
                 transform="scale(0.015625)" />
              <path
                 d="M 1702 493  L 1786 422  Q 1478 -64 1011 -64  Q 448 -64 448 749  L 448 2675  L 109 2675  Q 83 2694 83 2720  Q 83 2771 192 2842  Q 435 2982 813 3526  Q 826 3546 874 3606  Q 922 3667 941 3706  Q 986 3706 986 3622  L 986 2880  L 1632 2880  L 1632 2675  L 986 2675  L 986 845  Q 986 538 1062 403  Q 1139 269 1318 269  Q 1510 269 1702 493  z "
                 id="STIXGeneral-Regular-74"
                 transform="scale(0.015625)" />
              <path
                 d="M 1018 2931  L 1018 2438  Q 1421 2944 1939 2944  Q 2406 2944 2707 2560  Q 3008 2176 3008 1581  Q 3008 883 2621 409  Q 2234 -64 1664 -64  Q 1466 -64 1328 -6  Q 1190 51 1018 211  L 1018 -794  Q 1018 -1094 1120 -1180  Q 1222 -1267 1581 -1274  L 1581 -1389  L 32 -1389  L 32 -1280  Q 314 -1254 397 -1171  Q 480 -1088 480 -838  L 480 2157  Q 480 2381 429 2451  Q 378 2522 218 2522  Q 115 2522 58 2515  L 58 2618  Q 506 2752 979 2944  L 1018 2931  z M 1018 2138  L 1018 563  Q 1018 422 1238 281  Q 1459 141 1683 141  Q 2029 141 2243 467  Q 2458 794 2458 1325  Q 2458 1888 2243 2224  Q 2029 2560 1670 2560  Q 1446 2560 1232 2419  Q 1018 2278 1018 2138  z "
                 id="STIXGeneral-Regular-70"
                 transform="scale(0.015625)" />
            </defs>
            <use
               xlink:href="#STIXGeneral-Regular-54"
               id="use66783" />
            <use
               x="61.099991"
               xlink:href="#STIXGeneral-Regular-69"
               id="use66785" />
            <use
               x="88.899979"
               xlink:href="#STIXGeneral-Regular-6d"
               id="use66787" />
            <use
               x="166.699966"
               xlink:href="#STIXGeneral-Regular-65"
               id="use66789" />
            <use
               x="211.09996"
               xlink:href="#STIXGeneral-Regular-73"
               id="use66791" />
            <use
               x="249.999954"
               xlink:href="#STIXGeneral-Regular-74"
               id="use66793" />
            <use
               x="277.799942"
               xlink:href="#STIXGeneral-Regular-65"
               id="use66795" />
            <use
               x="322.199936"
               xlink:href="#STIXGeneral-Regular-70"
               id="use66797" />
            <use
               x="372.199921"
               xlink:href="#STIXGeneral-Regular-73"
               id="use66799" />
          </g>
        </g>
        <g
           id="text_8">
          <!-- 1e6 -->
          <g
             transform="translate(470.095 289.8275)scale(0.16 -0.16)"
             id="g66813">
            <defs
               id="defs66805">
              <path
                 d="M 2854 4378  L 2867 4275  Q 2112 4154 1606 3664  Q 1101 3174 973 2451  Q 1344 2739 1786 2739  Q 2349 2739 2672 2380  Q 2995 2022 2995 1402  Q 2995 774 2669 378  Q 2291 -90 1651 -90  Q 870 -90 518 557  Q 218 1107 218 1786  Q 218 2835 915 3552  Q 1312 3962 1731 4131  Q 2150 4301 2854 4378  z M 2419 1203  Q 2419 2445 1555 2445  Q 1235 2445 1024 2275  Q 813 2106 813 1702  Q 813 954 1046 522  Q 1280 90 1722 90  Q 2061 90 2240 394  Q 2419 698 2419 1203  z "
                 id="STIXGeneral-Regular-36"
                 transform="scale(0.015625)" />
            </defs>
            <use
               xlink:href="#STIXGeneral-Regular-31"
               id="use66807" />
            <use
               x="49.999985"
               xlink:href="#STIXGeneral-Regular-65"
               id="use66809" />
            <use
               x="94.399979"
               xlink:href="#STIXGeneral-Regular-36"
               id="use66811" />
          </g>
        </g>
      </g>
      <g
         id="matplotlib.axis_2">
        <g
           id="ytick_1">
          <g
             id="text_9">
            <!-- 0.01 -->
            <g
               transform="translate(26.5 209.89418)scale(0.16 -0.16)"
               id="g66828">
              <defs
                 id="defs66818">
                <path
                   d="M 1158 275  Q 1158 134 1052 32  Q 947 -70 800 -70  Q 653 -70 550 32  Q 448 134 448 281  Q 448 429 553 534  Q 659 640 806 640  Q 947 640 1052 531  Q 1158 422 1158 275  z "
                   id="STIXGeneral-Regular-2e"
                   transform="scale(0.015625)" />
              </defs>
              <use
                 xlink:href="#STIXGeneral-Regular-30"
                 id="use66820" />
              <use
                 x="49.999985"
                 xlink:href="#STIXGeneral-Regular-2e"
                 id="use66822" />
              <use
                 x="74.999969"
                 xlink:href="#STIXGeneral-Regular-30"
                 id="use66824" />
              <use
                 x="124.999954"
                 xlink:href="#STIXGeneral-Regular-31"
                 id="use66826" />
            </g>
          </g>
        </g>
        <g
           id="ytick_2">
          <g
             id="text_10">
            <!-- 0.02 -->
            <g
               transform="translate(26.5 150.810108)scale(0.16 -0.16)"
               id="g66840">
              <use
                 xlink:href="#STIXGeneral-Regular-30"
                 id="use66832" />
              <use
                 x="49.999985"
                 xlink:href="#STIXGeneral-Regular-2e"
                 id="use66834" />
              <use
                 x="74.999969"
                 xlink:href="#STIXGeneral-Regular-30"
                 id="use66836" />
              <use
                 x="124.999954"
                 xlink:href="#STIXGeneral-Regular-32"
                 id="use66838" />
            </g>
          </g>
        </g>
        <g
           id="ytick_3">
          <g
             id="text_11">
            <!-- 0.03 -->
            <g
               transform="translate(26.5 91.726036)scale(0.16 -0.16)"
               id="g66852">
              <use
                 xlink:href="#STIXGeneral-Regular-30"
                 id="use66844" />
              <use
                 x="49.999985"
                 xlink:href="#STIXGeneral-Regular-2e"
                 id="use66846" />
              <use
                 x="74.999969"
                 xlink:href="#STIXGeneral-Regular-30"
                 id="use66848" />
              <use
                 x="124.999954"
                 xlink:href="#STIXGeneral-Regular-33"
                 id="use66850" />
            </g>
          </g>
        </g>
        <g
           id="ytick_4">
          <g
             id="text_12">
            <!-- 0.04 -->
            <g
               transform="translate(26.5 32.641964)scale(0.16 -0.16)"
               id="g66864">
              <use
                 xlink:href="#STIXGeneral-Regular-30"
                 id="use66856" />
              <use
                 x="49.999985"
                 xlink:href="#STIXGeneral-Regular-2e"
                 id="use66858" />
              <use
                 x="74.999969"
                 xlink:href="#STIXGeneral-Regular-30"
                 id="use66860" />
              <use
                 x="124.999954"
                 xlink:href="#STIXGeneral-Regular-34"
                 id="use66862" />
            </g>
          </g>
        </g>
        <g
           id="text_13">
          <!-- MSRE -->
          <g
             transform="translate(18.810469 152.745234)rotate(-90)scale(0.17 -0.17)"
             id="g66882">
            <defs
               id="defs66872">
              <path
                 d="M 5530 0  L 3738 0  L 3738 122  Q 4115 147 4214 265  Q 4314 384 4314 787  L 4314 3661  L 2682 0  L 2592 0  L 979 3514  L 979 966  Q 979 448 1088 294  Q 1197 141 1574 122  L 1574 0  L 77 0  L 77 122  Q 358 141 480 205  Q 602 269 650 432  Q 698 595 698 966  L 698 3514  Q 698 3878 589 3984  Q 480 4090 90 4115  L 90 4237  L 1357 4237  L 2835 1024  L 4250 4237  L 5523 4237  L 5523 4115  Q 5178 4109 5072 3993  Q 4966 3878 4966 3520  L 4966 717  Q 4966 378 5072 262  Q 5178 147 5530 122  L 5530 0  z "
                 id="STIXGeneral-Regular-4d"
                 transform="scale(0.015625)" />
              <path
                 d="M 3002 2963  L 2842 2963  Q 2733 3360 2579 3565  Q 2189 4064 1651 4064  Q 1357 4064 1181 3894  Q 1005 3725 1005 3456  Q 1005 3328 1069 3206  Q 1133 3085 1206 2998  Q 1280 2912 1465 2784  Q 1651 2656 1766 2589  Q 1882 2522 2150 2362  Q 2669 2061 2905 1763  Q 3142 1466 3142 1107  Q 3142 576 2771 243  Q 2400 -90 1837 -90  Q 1421 -90 1082 58  Q 915 128 781 128  Q 704 128 653 70  Q 602 13 602 -83  L 461 -83  L 275 1274  L 416 1274  Q 845 141 1734 141  Q 2074 141 2285 342  Q 2496 544 2496 858  Q 2496 1158 2310 1363  Q 2003 1696 1235 2106  Q 454 2522 454 3206  Q 454 3718 768 4022  Q 1082 4326 1568 4326  Q 1907 4326 2240 4186  Q 2413 4109 2522 4109  Q 2688 4109 2726 4326  L 2861 4326  L 3002 2963  z "
                 id="STIXGeneral-Regular-53"
                 transform="scale(0.015625)" />
              <path
                 d="M 4224 0  L 3187 0  L 1664 1971  L 1306 1958  L 1306 717  Q 1306 352 1405 249  Q 1504 147 1875 122  L 1875 0  L 109 0  L 109 122  Q 474 154 563 262  Q 653 371 653 794  L 653 3526  Q 653 3885 563 3987  Q 474 4090 109 4115  L 109 4237  L 1850 4237  Q 2726 4237 3187 3859  Q 3501 3603 3501 3091  Q 3501 2221 2342 2042  L 3622 422  Q 3757 256 3878 198  Q 4000 141 4224 122  L 4224 0  z M 1306 3731  L 1306 2195  Q 1766 2202 1990 2246  Q 2214 2291 2438 2413  Q 2803 2618 2803 3142  Q 2803 4000 1632 4000  Q 1459 4000 1382 3945  Q 1306 3891 1306 3731  z "
                 id="STIXGeneral-Regular-52"
                 transform="scale(0.015625)" />
              <path
                 d="M 3821 1082  L 3526 0  L 77 0  L 77 122  Q 442 147 538 252  Q 634 358 634 730  L 634 3520  Q 634 3878 534 3987  Q 435 4096 77 4115  L 77 4237  L 3469 4237  L 3494 3322  L 3334 3322  Q 3264 3750 3085 3872  Q 2906 3994 2349 3994  L 1510 3994  Q 1370 3994 1328 3952  Q 1286 3910 1286 3763  L 1286 2355  L 2253 2355  Q 2656 2355 2787 2470  Q 2918 2586 2976 2970  L 3123 2970  L 3123 1472  L 2976 1472  Q 2918 1875 2790 1984  Q 2662 2093 2253 2093  L 1286 2093  L 1286 538  Q 1286 346 1420 291  Q 1555 237 1933 237  L 2163 237  Q 2848 237 3136 403  Q 3424 570 3642 1082  L 3821 1082  z "
                 id="STIXGeneral-Regular-45"
                 transform="scale(0.015625)" />
            </defs>
            <use
               xlink:href="#STIXGeneral-Regular-4d"
               id="use66874" />
            <use
               x="88.899994"
               xlink:href="#STIXGeneral-Regular-53"
               id="use66876" />
            <use
               x="144.499985"
               xlink:href="#STIXGeneral-Regular-52"
               id="use66878" />
            <use
               x="211.199982"
               xlink:href="#STIXGeneral-Regular-45"
               id="use66880" />
          </g>
        </g>
      </g>
    </g>
  </g>
  <text
     xml:space="preserve"
     style="font-style:normal;font-weight:normal;font-size:11px;line-height:1.25;font-family:sans-serif;word-spacing:0px;fill:#3e83ba;fill-opacity:1;stroke:none;stroke-width:0.75;stroke-linecap:butt;stroke-linejoin:round"
     x="186.82979"
     y="89.061554"
     id="text4473"><tspan
       sodipodi:role="line"
       id="tspan4471"
       style="font-style:normal;font-variant:normal;font-weight:normal;font-stretch:normal;font-size:11px;font-family:STIXGeneral;-inkscape-font-specification:STIXGeneral;fill:#3e83ba;fill-opacity:1;stroke-width:0.75"
       x="186.82979"
       y="89.061554">Diagonal Jacobian (Biased RTRL)</tspan></text>
  <text
     xml:space="preserve"
     style="font-style:normal;font-weight:normal;font-size:11px;line-height:1.25;font-family:sans-serif;fill:#e62527;fill-opacity:1;stroke:none;stroke-width:0.75;stroke-linecap:butt;stroke-linejoin:round"
     x="187.37927"
     y="134.66264"
     id="text4473-8"><tspan
       sodipodi:role="line"
       id="tspan4471-8"
       style="font-style:normal;font-variant:normal;font-weight:normal;font-stretch:normal;font-size:11px;font-family:STIXGeneral;-inkscape-font-specification:STIXGeneral;fill:#e62527;fill-opacity:1;stroke-width:0.75"
       x="187.37927"
       y="134.66264">T-BPTT</tspan></text>
  <text
     xml:space="preserve"
     style="font-style:normal;font-weight:normal;font-size:11px;line-height:1.25;font-family:sans-serif;fill:#ff7f00;fill-opacity:1;stroke:none;stroke-width:0.75;stroke-linecap:butt;stroke-linejoin:round"
     x="186.58572"
     y="237.96115"
     id="text4473-5"><tspan
       sodipodi:role="line"
       id="tspan4471-4"
       style="font-style:normal;font-variant:normal;font-weight:normal;font-stretch:normal;font-size:11px;font-family:STIXGeneral;-inkscape-font-specification:STIXGeneral;fill:#ff7f00;fill-opacity:1;stroke-width:0.75"
       x="186.58572"
       y="237.96115">Hybrid Networks</tspan></text>
  <text
     xml:space="preserve"
     style="font-style:normal;font-weight:normal;font-size:11px;line-height:1.25;font-family:sans-serif;fill:#4daf4a;fill-opacity:1;stroke:none;stroke-width:0.75;stroke-linecap:butt;stroke-linejoin:round"
     x="355.76971"
     y="177.31079"
     id="text4473-5-8"><tspan
       sodipodi:role="line"
       id="tspan4471-4-7"
       style="font-style:normal;font-variant:normal;font-weight:normal;font-stretch:normal;font-size:11px;font-family:STIXGeneral;-inkscape-font-specification:STIXGeneral;fill:#4daf4a;fill-opacity:1;stroke-width:0.75"
       x="355.76971"
       y="177.31079">Columnar Networks</tspan></text>
  <text
     xml:space="preserve"
     style="font-style:normal;font-weight:normal;font-size:11px;line-height:1.25;font-family:sans-serif;fill:#984ea3;fill-opacity:1;stroke:none;stroke-width:0.75;stroke-linecap:butt;stroke-linejoin:round"
     x="357.77667"
     y="225.03456"
     id="text4473-5-8-0"><tspan
       sodipodi:role="line"
       id="tspan4471-4-7-6"
       style="font-style:normal;font-variant:normal;font-weight:normal;font-stretch:normal;font-size:11px;font-family:STIXGeneral;-inkscape-font-specification:STIXGeneral;fill:#984ea3;fill-opacity:1;stroke-width:0.75"
       x="357.77667"
       y="225.03456">Constructive Networks</tspan></text>
  <defs
     id="defs66891">
    <clipPath
       id="p54be13fe48">
      <rect
         height="244.8"
         width="429.2"
         x="64"
         y="7.2"
         id="rect66888" />
    </clipPath>
  </defs>
</svg>
